<?xml version="1.0" encoding="utf-8"?>
<!-- Generator: Adobe Illustrator 21.0.0, SVG Export Plug-In . SVG Version: 6.00 Build 0)  -->
<svg version="1.1" id="Layer_1" xmlns="http://www.w3.org/2000/svg" xmlns:xlink="http://www.w3.org/1999/xlink" x="0px" y="0px"
	 viewBox="0 0 420.7 373" style="enable-background:new 0 0 420.7 373;" xml:space="preserve">
<style type="text/css">
	.st0{fill:#FFFFFF;}
</style>
<g>
	<path class="st0" d="M212.7,361.8c11.6-1.9,23.6-2.7,34.8-6c47-14,77.9-44.8,91.6-92c23-79.2-37.2-162.2-119.6-165.4
		c-8-0.3-8.5,0.4-5.8,7.6c10.4,26.9-1.6,57.4-27.6,70.1c-26.4,12.9-57.9,3.5-72.7-21.5c-3.6-6.2-4.9-6.3-8.9-0.6
		C83.3,184.3,76.2,218.1,83,254.1C94.7,316.6,149.2,360.9,212.7,361.8z M415.9,142.6c-1.6-3.6-2.7-6.5-4.1-9.3
		C362.6,33.7,251.9-14.5,146,18.7C80.7,39.1,35,82,7.6,144.6c-1.9,4.3-0.8,6.6,3.4,8.2c8.1,3.1,16.2,6.3,24.3,9.4
		c7,2.6,7.7,2.3,10.8-4.5c22-48.8,58.2-82.6,108.9-99.4c57.8-19.1,112.5-10.6,162.7,24c26.2,18.1,45.5,42.2,59.1,71
		c1.6,3.5,3,6.5,7.8,4.4c9-4,18.1-7.6,27.2-11.6C413.2,145.3,414.4,143.8,415.9,142.6z"/>
	<path class="st0" d="M212.7,361.8c-63.5-1-118-45.3-129.8-107.7c-6.8-36,0.4-69.8,21.5-100.1c4-5.7,5.2-5.6,8.9,0.6
		c14.8,25.1,46.2,34.4,72.7,21.5c26-12.7,38-43.2,27.6-70.1c-2.8-7.2-2.2-8,5.8-7.6c82.4,3.3,142.6,86.3,119.6,165.4
		c-13.7,47.2-44.5,78-91.6,92C236.3,359.2,224.3,359.9,212.7,361.8z"/>
	<path class="st0" d="M415.9,142.6c-1.5,1.2-2.7,2.7-4.3,3.4c-9,4-18.1,7.7-27.2,11.6c-4.8,2.1-6.2-0.9-7.8-4.4
		c-13.5-28.8-32.9-52.9-59.1-71c-50.2-34.6-104.8-43.1-162.7-24C104.2,75.1,68,108.9,46,157.6c-3.1,6.8-3.8,7.1-10.8,4.5
		c-8.1-3.1-16.2-6.3-24.3-9.4c-4.2-1.6-5.2-3.9-3.4-8.2C35,82,80.7,39.1,146,18.7c105.9-33.1,216.6,15,265.8,114.6
		C413.2,136.1,414.3,139,415.9,142.6z"/>
</g>
</svg>
