<svg id="Layer_1" data-name="Layer 1" xmlns="http://www.w3.org/2000/svg" xmlns:xlink="http://www.w3.org/1999/xlink" viewBox="0 0 1357 660">
  <defs>
    <style>
      .cls-1, .cls-16, .cls-7 {
        fill: #fff;
      }

      .cls-2 {
        fill: #ffe6e2;
        transition-duration: 250ms;
      }
      .cls-2:hover {
        fill: #42f5b6;
      }

      .cls-3 {
        fill: #eec944;
      }

      .cls-4 {
        mask: url(#mask);
      }

      .cls-21, .cls-24, .cls-27, .cls-28, .cls-31, .cls-36, .cls-5, .cls-6, .cls-9 {
        fill: none;
      }

      .cls-27, .cls-5 {
        stroke: #0e0108;
      }

      .cls-21, .cls-27, .cls-28, .cls-5 {
        stroke-linecap: round;
        stroke-linejoin: round;
      }

      .cls-5 {
        stroke-width: 3px;
      }

      .cls-14, .cls-15, .cls-16, .cls-31, .cls-32, .cls-33, .cls-34, .cls-35, .cls-6, .cls-7 {
        stroke: #000;
        stroke-width: 6px;
      }

      .cls-14, .cls-24, .cls-6, .cls-7 {
        stroke-miterlimit: 10;
      }

      .cls-8 {
        mask: url(#mask-2);
      }

      .cls-10 {
        fill: #d8948f;
      }

      .cls-11 {
        fill: #b26e6d;
      }

      .cls-12 {
        fill: #0e0108;
      }

      .cls-13 {
        fill: #30354b;
      }

      .cls-17 {
        fill: #fed241;
      }

      .cls-18 {
        mask: url(#mask-5);
      }

      .cls-19, .cls-34 {
        fill: #f56867;
      }

      .cls-20 {
        fill: #ef9c98;
      }

      .cls-21 {
        stroke: #dd7c7c;
        stroke-width: 0.8px;
      }

      .cls-22 {
        fill: #f6eded;
      }

      .cls-23 {
        fill: #dd4e4e;
      }

      .cls-24 {
        stroke: #dd4e4e;
        stroke-width: 1.92px;
      }

      .cls-25 {
        fill: #4d2e3c;
      }

      .cls-26 {
        fill: #dd7c7c;
      }

      .cls-28 {
        stroke: #4d2e3c;
        stroke-width: 1.23px;
      }

      .cls-29 {
        fill: #351e29;
      }

      .cls-30 {
        fill: #f2f6fb;
      }

      .cls-32 {
        fill: #75be8a;
        animation: bounce-top 15s infinite;
        animation-direction: alternate-reverse;
      }

      .cls-33 {
        fill: #119eb9;
        animation: bounce-top 20s infinite;
        animation-direction: alternate-reverse;
      }

      .cls-35 {
        fill: #cec6f7;
      }

      .cls-36 {
        stroke: #fff;
        stroke-width: 8px;
        animation: shake-horizontal 20s ease-in-out infinite both;
      }
        
      .cls-17 {
        transition-duration: 250ms;
      }

      .cls-17:hover {
        fill: #42d4f5;
      }
        
        
    @keyframes shake-horizontal {
      0%,
      100% {
        transform: translateX(0);
      }
      10%,
      30%,
      50%,
      70% {
        transform: translateX(-20px);
      }
      20%,
      40%,
      60% {
        transform: translateX(20px);
      }
      80% {
        transform: translateX(8px);
      }
      90% {
        transform: translateX(-8px);
      }
    }


    @keyframes bounce-top {
      0% {
        transform: translateY(-70px);
        animation-timing-function: ease-in;
        opacity: 1;
      }
      24% {
        opacity: 1;
      }
      40% {
        transform: translateY(-54px);
        animation-timing-function: ease-in;
      }
      65% {
        transform: translateY(-22px);
        animation-timing-function: ease-in;
      }
      82% {
        transform: translateY(-10px);
        animation-timing-function: ease-in;
      }
      93% {
        transform: translateY(-4px);
        animation-timing-function: ease-in;
      }
      25%,
      55%,
      75%,
      87% {
        transform: translateY(0px);
        animation-timing-function: ease-out;
      }
      100% {
        transform: translateY(0px);
        animation-timing-function: ease-out;
        opacity: 1;
      }
    }

    </style>
    <mask id="mask" x="767.93" y="125.24" width="451.36" height="561.24" maskUnits="userSpaceOnUse">
      <g id="mask0_102_909" data-name="mask0 102 909">
        <path class="cls-1" d="M767.93,125.24h426.71V431.7a10,10,0,0,1-10,10H777.93a10,10,0,0,1-10-10Z"/>
      </g>
    </mask>
    <mask id="mask-2" x="767" y="125" width="452.28" height="561.48" maskUnits="userSpaceOnUse">
      <g id="mask1_102_909" data-name="mask1 102 909">
        <path class="cls-2" d="M767.93,125.24h426.71V421.7a20,20,0,0,1-20,20H787.93a20,20,0,0,1-20-20Z"/>
      </g>
    </mask>
    <mask id="mask-5" x="140" y="206.17" width="684.72" height="435.78" maskUnits="userSpaceOnUse">
      <g id="mask4_102_909" data-name="mask4 102 909">
        <path class="cls-3" d="M140,206.17H824.72V539.49a20,20,0,0,1-20,20H160a20,20,0,0,1-20-20Z"/>
      </g>
    </mask>
  </defs>
  <title>Into_illustration1a</title>
  <path class="cls-1" d="M767.93,124.56h426.71V431a10,10,0,0,1-10,10H777.93a10,10,0,0,1-10-10Z"/>
  <g class="cls-4">
    <g>
      <path class="cls-1" d="M984.34,383.23a28.48,28.48,0,0,0,28.41-28.41V297.35a28.5,28.5,0,0,0-28.41-28.43h0a28.53,28.53,0,0,0-28.44,28.43v57.47a28.51,28.51,0,0,0,28.44,28.41Z"/>
      <path class="cls-1" d="M981.9,268.92h4.85a26.1,26.1,0,0,1,26,26V315.3c-18,15.33-43.22,24.23-56.85,23V294.94a26.09,26.09,0,0,1,26-26Z"/>
      <path class="cls-1" d="M911,235.88a58.69,58.69,0,0,1,3.22-18.94l.14-.53a59,59,0,0,1,114.32,12.64c3.52,12.55-5.56,41.51-11.13,57.28a40.65,40.65,0,0,1-12.89,18.23c-20,16.09-68.32,42.32-85.45,18C903.88,300.82,907.33,262.55,911,235.88Z"/>
      <path class="cls-1" d="M929.1,282s6.55,6.32,16.48,0Z"/>
      <path class="cls-5" d="M929.1,282s6.55,6.32,16.48,0"/>
      <path class="cls-1" d="M990.61,254a1.43,1.43,0,0,0,.87-.3,1.49,1.49,0,0,0,.34-2.11c-8.6-12.07-24.9-4.94-25.06-4.85a1.52,1.52,0,0,0,1.24,2.78c.57-.25,14.18-6.18,21.33,3.84a1.56,1.56,0,0,0,1.26.64Z"/>
      <path class="cls-1" d="M909.53,247.75l.35-3.06A29.3,29.3,0,0,1,922,246.8a1.53,1.53,0,0,1-1.26,2.78,25.13,25.13,0,0,0-11.22-1.84Z"/>
      <path class="cls-1" d="M951.76,273.7a1.54,1.54,0,0,0,1.22-.57c.58-.76,14.87-18.21,36.78-5.15a1.52,1.52,0,0,0,2.09-.53,1.54,1.54,0,0,0-.55-2.09,31.08,31.08,0,0,0-40.8,5.89,1.56,1.56,0,0,0,.25,2.14,1.61,1.61,0,0,0,1,.32Z"/>
      <path class="cls-1" d="M908.46,259.65a31.79,31.79,0,0,1,21.61,9.47,1.52,1.52,0,0,1,0,2.16,1.54,1.54,0,0,1-2.16,0,28.92,28.92,0,0,0-19.72-8.73Z"/>
      <path class="cls-1" d="M960.36,300c-17.31,15.7-36.5,1.4-36.5,1.4Z"/>
      <path class="cls-1" d="M1046.59,272.89a22.87,22.87,0,1,0-1.74,8.74,22.85,22.85,0,0,0,1.74-8.74Z"/>
      <path class="cls-1" d="M1013.23,275.1s7.31-18.64,27-14.51Z"/>
      <path class="cls-5" d="M1013.23,275.1s7.31-18.64,27-14.51"/>
      <path class="cls-1" d="M1044.5,223.22a20.19,20.19,0,0,0-5.15-5.56,30.48,30.48,0,0,0,6.23-10.64c4.41-12.78.16-28.23-12.58-34.3a25,25,0,0,0-17.28-1.84,14.85,14.85,0,0,0-2.42-4.6c-3.24-4.16-9.74-6.76-16.09-6.9-5-11-18.67-17.79-30.37-16.23a16.34,16.34,0,0,0-15.56,17.49c-1.65.21-3.24.48-4.6.74a31,31,0,0,0-9.2,3,21.83,21.83,0,0,0-19.31-2.69c-9.08,3.36-16.3,13.79-15.36,23.68a20.69,20.69,0,0,0-9.19,15.45c-.71,6.23,1.22,14.94,8,17.2a7.08,7.08,0,0,0,2.16.35,11.06,11.06,0,0,0,.57,2.3,14.82,14.82,0,0,0,2.07,3.79,15.8,15.8,0,0,0,.48,2.3,12.35,12.35,0,0,0,12.64,8.3,19.49,19.49,0,0,0,14.23-8,17.39,17.39,0,0,0,.53,1.86c2.3,6.9,8.76,8.3,14.85,5.24a30.6,30.6,0,0,0,11-10.62,9.19,9.19,0,0,0,6.16,3.4,15.09,15.09,0,0,0,6.9-.74c0,5.88,2.48,10.55,10.37,10.85a16.86,16.86,0,0,0,7.56-1.45c-.3,5.29.9,10.76,5.4,14.09a15.93,15.93,0,0,0,16.69.76h0a1.74,1.74,0,0,0,.25.64c3.38,6.6,10.9,7.86,17.36,5.31a27.29,27.29,0,0,0,14.5-14.14,20.42,20.42,0,0,0-.82-19.13Z"/>
      <path class="cls-1" d="M850.46,680.07l3-1.61a42.79,42.79,0,0,0,15.84-14.32,44.65,44.65,0,0,0,9.4-15.77L959.81,412a45.22,45.22,0,0,0-28-57.28h0a45.22,45.22,0,0,0-57.28,28.07l-59,171.95"/>
      <path class="cls-1" d="M1194.23,662.94c-21.95,11.49-48.52,4.6-59.07-15.33L1016.93,423.28c-10.55-20-1.22-45.81,20.69-57.47,21.95-11.49,48.53-4.6,59.08,15.33l118.22,224.33C1225.5,625.57,1216.16,651.38,1194.23,662.94Z"/>
      <path class="cls-1" d="M1041.3,352.43l-11.49-1.22c-13.66-.92-99.17-.16-111.59,1.33L846.11,686.48h228.64l37.14-261.11C1108.24,376.08,1076.42,357.46,1041.3,352.43Z"/>
    </g>
  </g>
  <path class="cls-6" d="M767,124.34h429"/>
  <path class="cls-7" d="M1187.37,81H775.63A8.63,8.63,0,0,0,767,89.63V432.57a8.63,8.63,0,0,0,8.63,8.63h411.74a8.63,8.63,0,0,0,8.63-8.63V89.63A8.63,8.63,0,0,0,1187.37,81Z"/>
  <path class="cls-2" d="M767.93,124.56h426.71V421a20,20,0,0,1-20,20H787.93a20,20,0,0,1-20-20Z"/>
  <g class="cls-8">
    <g>
      <path class="cls-9" d="M767,125h428V422a20,20,0,0,1-20,20H787a20,20,0,0,1-20-20Z"/>
      <path class="cls-10" d="M984.34,383.23a28.48,28.48,0,0,0,28.41-28.41V297.35a28.5,28.5,0,0,0-28.41-28.43h0a28.53,28.53,0,0,0-28.44,28.43v57.47a28.51,28.51,0,0,0,28.44,28.41Z"/>
      <path class="cls-11" d="M981.9,268.92h4.85a26.1,26.1,0,0,1,26,26V315.3c-18,15.33-43.22,24.23-56.85,23V294.94a26.09,26.09,0,0,1,26-26Z"/>
      <path class="cls-10" d="M911,235.88a58.69,58.69,0,0,1,3.22-18.94l.14-.53a59,59,0,0,1,114.32,12.64c3.52,12.55-5.56,41.51-11.13,57.28a40.65,40.65,0,0,1-12.89,18.23c-20,16.09-68.32,42.32-85.45,18C903.88,300.82,907.33,262.55,911,235.88Z"/>
      <path class="cls-5" d="M929.1,282s6.55,6.32,16.48,0"/>
      <path class="cls-12" d="M990.61,254a1.43,1.43,0,0,0,.87-.3,1.49,1.49,0,0,0,.34-2.11c-8.6-12.07-24.9-4.94-25.06-4.85a1.52,1.52,0,0,0,1.24,2.78c.57-.25,14.18-6.18,21.33,3.84a1.56,1.56,0,0,0,1.26.64Z"/>
      <path class="cls-12" d="M909.53,247.75l.35-3.06A29.3,29.3,0,0,1,922,246.8a1.53,1.53,0,0,1-1.26,2.78,25.13,25.13,0,0,0-11.22-1.84Z"/>
      <path class="cls-12" d="M951.76,273.7a1.54,1.54,0,0,0,1.22-.57c.58-.76,14.87-18.21,36.78-5.15a1.52,1.52,0,0,0,2.09-.53,1.54,1.54,0,0,0-.55-2.09,31.08,31.08,0,0,0-40.8,5.89,1.56,1.56,0,0,0,.25,2.14,1.61,1.61,0,0,0,1,.32Z"/>
      <path class="cls-12" d="M908.46,259.65a31.79,31.79,0,0,1,21.61,9.47,1.52,1.52,0,0,1,0,2.16,1.54,1.54,0,0,1-2.16,0,28.92,28.92,0,0,0-19.72-8.73Z"/>
      <path class="cls-1" d="M960.36,300c-17.31,15.7-36.5,1.4-36.5,1.4Z"/>
      <path class="cls-10" d="M1046.59,272.89a22.87,22.87,0,1,0-1.74,8.74,22.85,22.85,0,0,0,1.74-8.74Z"/>
      <path class="cls-5" d="M1013.23,275.1s7.31-18.64,27-14.51"/>
      <path class="cls-12" d="M1044.5,223.22a20.19,20.19,0,0,0-5.15-5.56,30.48,30.48,0,0,0,6.23-10.64c4.41-12.78.16-28.23-12.58-34.3a25,25,0,0,0-17.28-1.84,14.85,14.85,0,0,0-2.42-4.6c-3.24-4.16-9.74-6.76-16.09-6.9-5-11-18.67-17.79-30.37-16.23a16.34,16.34,0,0,0-15.56,17.49c-1.65.21-3.24.48-4.6.74a31,31,0,0,0-9.2,3,21.83,21.83,0,0,0-19.31-2.69c-9.08,3.36-16.3,13.79-15.36,23.68a20.69,20.69,0,0,0-9.19,15.45c-.71,6.23,1.22,14.94,8,17.2a7.08,7.08,0,0,0,2.16.35,11.06,11.06,0,0,0,.57,2.3,14.82,14.82,0,0,0,2.07,3.79,15.8,15.8,0,0,0,.48,2.3,12.35,12.35,0,0,0,12.64,8.3,19.49,19.49,0,0,0,14.23-8,17.39,17.39,0,0,0,.53,1.86c2.3,6.9,8.76,8.3,14.85,5.24a30.6,30.6,0,0,0,11-10.62,9.19,9.19,0,0,0,6.16,3.4,15.09,15.09,0,0,0,6.9-.74c0,5.88,2.48,10.55,10.37,10.85a16.86,16.86,0,0,0,7.56-1.45c-.3,5.29.9,10.76,5.4,14.09a15.93,15.93,0,0,0,16.69.76h0a1.74,1.74,0,0,0,.25.64c3.38,6.6,10.9,7.86,17.36,5.31a27.29,27.29,0,0,0,14.5-14.14,20.42,20.42,0,0,0-.82-19.13Z"/>
      <path class="cls-13" d="M850.46,680.07l3-1.61a42.79,42.79,0,0,0,15.84-14.32,44.65,44.65,0,0,0,9.4-15.77L959.81,412a45.22,45.22,0,0,0-28-57.28h0a45.22,45.22,0,0,0-57.28,28.07l-59,171.95"/>
      <path class="cls-13" d="M1194.23,662.94c-21.95,11.49-48.52,4.6-59.07-15.33L1016.93,423.28c-10.55-20-1.22-45.81,20.69-57.47,21.95-11.49,48.53-4.6,59.08,15.33l118.22,224.33C1225.5,625.57,1216.16,651.38,1194.23,662.94Z"/>
      <path class="cls-13" d="M1041.3,352.43l-11.49-1.22c-13.66-.92-99.17-.16-111.59,1.33L846.11,686.48h228.64l37.14-261.11C1108.24,376.08,1076.42,357.46,1041.3,352.43Z"/>
    </g>
  </g>
  <path class="cls-6" d="M767,124.34h429"/>
  <path class="cls-6" d="M1187.37,81H775.63A8.63,8.63,0,0,0,767,89.63V432.57a8.63,8.63,0,0,0,8.63,8.63h411.74a8.63,8.63,0,0,0,8.63-8.63V89.63A8.63,8.63,0,0,0,1187.37,81Z"/>
  <path class="cls-6" d="M800,102.47a6.5,6.5,0,1,1-1.89-4.56,6.5,6.5,0,0,1,1.89,4.56Z"/>
  <path class="cls-6" d="M828,102.47a6.5,6.5,0,1,1-1.91-4.58,6.5,6.5,0,0,1,1.91,4.58Z"/>
  <path class="cls-6" d="M854,102.5a6.47,6.47,0,1,1-.49-2.5,6.5,6.5,0,0,1,.49,2.5Z"/>
  <path class="cls-1" d="M767.93,124.56h426.71V431a10,10,0,0,1-10,10H777.93a10,10,0,0,1-10-10Z"/>
  <g class="cls-4">
    <g>
      <path class="cls-1" d="M984.34,383.23a28.48,28.48,0,0,0,28.41-28.41V297.35a28.5,28.5,0,0,0-28.41-28.43h0a28.53,28.53,0,0,0-28.44,28.43v57.47a28.51,28.51,0,0,0,28.44,28.41Z"/>
      <path class="cls-1" d="M981.9,268.92h4.85a26.1,26.1,0,0,1,26,26V315.3c-18,15.33-43.22,24.23-56.85,23V294.94a26.09,26.09,0,0,1,26-26Z"/>
      <path class="cls-1" d="M911,235.88a58.69,58.69,0,0,1,3.22-18.94l.14-.53a59,59,0,0,1,114.32,12.64c3.52,12.55-5.56,41.51-11.13,57.28a40.65,40.65,0,0,1-12.89,18.23c-20,16.09-68.32,42.32-85.45,18C903.88,300.82,907.33,262.55,911,235.88Z"/>
      <path class="cls-1" d="M929.1,282s6.55,6.32,16.48,0Z"/>
      <path class="cls-5" d="M929.1,282s6.55,6.32,16.48,0"/>
      <path class="cls-1" d="M990.61,254a1.43,1.43,0,0,0,.87-.3,1.49,1.49,0,0,0,.34-2.11c-8.6-12.07-24.9-4.94-25.06-4.85a1.52,1.52,0,0,0,1.24,2.78c.57-.25,14.18-6.18,21.33,3.84a1.56,1.56,0,0,0,1.26.64Z"/>
      <path class="cls-1" d="M909.53,247.75l.35-3.06A29.3,29.3,0,0,1,922,246.8a1.53,1.53,0,0,1-1.26,2.78,25.13,25.13,0,0,0-11.22-1.84Z"/>
      <path class="cls-1" d="M951.76,273.7a1.54,1.54,0,0,0,1.22-.57c.58-.76,14.87-18.21,36.78-5.15a1.52,1.52,0,0,0,2.09-.53,1.54,1.54,0,0,0-.55-2.09,31.08,31.08,0,0,0-40.8,5.89,1.56,1.56,0,0,0,.25,2.14,1.61,1.61,0,0,0,1,.32Z"/>
      <path class="cls-1" d="M908.46,259.65a31.79,31.79,0,0,1,21.61,9.47,1.52,1.52,0,0,1,0,2.16,1.54,1.54,0,0,1-2.16,0,28.92,28.92,0,0,0-19.72-8.73Z"/>
      <path class="cls-1" d="M960.36,300c-17.31,15.7-36.5,1.4-36.5,1.4Z"/>
      <path class="cls-1" d="M1046.59,272.89a22.87,22.87,0,1,0-1.74,8.74,22.85,22.85,0,0,0,1.74-8.74Z"/>
      <path class="cls-1" d="M1013.23,275.1s7.31-18.64,27-14.51Z"/>
      <path class="cls-5" d="M1013.23,275.1s7.31-18.64,27-14.51"/>
      <path class="cls-1" d="M1044.5,223.22a20.19,20.19,0,0,0-5.15-5.56,30.48,30.48,0,0,0,6.23-10.64c4.41-12.78.16-28.23-12.58-34.3a25,25,0,0,0-17.28-1.84,14.85,14.85,0,0,0-2.42-4.6c-3.24-4.16-9.74-6.76-16.09-6.9-5-11-18.67-17.79-30.37-16.23a16.34,16.34,0,0,0-15.56,17.49c-1.65.21-3.24.48-4.6.74a31,31,0,0,0-9.2,3,21.83,21.83,0,0,0-19.31-2.69c-9.08,3.36-16.3,13.79-15.36,23.68a20.69,20.69,0,0,0-9.19,15.45c-.71,6.23,1.22,14.94,8,17.2a7.08,7.08,0,0,0,2.16.35,11.06,11.06,0,0,0,.57,2.3,14.82,14.82,0,0,0,2.07,3.79,15.8,15.8,0,0,0,.48,2.3,12.35,12.35,0,0,0,12.64,8.3,19.49,19.49,0,0,0,14.23-8,17.39,17.39,0,0,0,.53,1.86c2.3,6.9,8.76,8.3,14.85,5.24a30.6,30.6,0,0,0,11-10.62,9.19,9.19,0,0,0,6.16,3.4,15.09,15.09,0,0,0,6.9-.74c0,5.88,2.48,10.55,10.37,10.85a16.86,16.86,0,0,0,7.56-1.45c-.3,5.29.9,10.76,5.4,14.09a15.93,15.93,0,0,0,16.69.76h0a1.74,1.74,0,0,0,.25.64c3.38,6.6,10.9,7.86,17.36,5.31a27.29,27.29,0,0,0,14.5-14.14,20.42,20.42,0,0,0-.82-19.13Z"/>
      <path class="cls-1" d="M850.46,680.07l3-1.61a42.79,42.79,0,0,0,15.84-14.32,44.65,44.65,0,0,0,9.4-15.77L959.81,412a45.22,45.22,0,0,0-28-57.28h0a45.22,45.22,0,0,0-57.28,28.07l-59,171.95"/>
      <path class="cls-1" d="M1194.23,662.94c-21.95,11.49-48.52,4.6-59.07-15.33L1016.93,423.28c-10.55-20-1.22-45.81,20.69-57.47,21.95-11.49,48.53-4.6,59.08,15.33l118.22,224.33C1225.5,625.57,1216.16,651.38,1194.23,662.94Z"/>
      <path class="cls-1" d="M1041.3,352.43l-11.49-1.22c-13.66-.92-99.17-.16-111.59,1.33L846.11,686.48h228.64l37.14-261.11C1108.24,376.08,1076.42,357.46,1041.3,352.43Z"/>
    </g>
  </g>
  <path class="cls-14" d="M1207.37,101H795.63a8.63,8.63,0,0,0-8.63,8.63V452.57a8.63,8.63,0,0,0,8.63,8.63h411.74a8.63,8.63,0,0,0,8.63-8.63V109.63A8.63,8.63,0,0,0,1207.37,101Z"/>
  <path class="cls-6" d="M767,124.34h429"/>
  <path class="cls-7" d="M1187.37,81H775.63A8.63,8.63,0,0,0,767,89.63V432.57a8.63,8.63,0,0,0,8.63,8.63h411.74a8.63,8.63,0,0,0,8.63-8.63V89.63A8.63,8.63,0,0,0,1187.37,81Z"/>
  <path class="cls-2" d="M767.93,124.56h426.71V421a20,20,0,0,1-20,20H787.93a20,20,0,0,1-20-20Z"/>
  <g class="cls-8">
    <g>
      <path class="cls-9" d="M767,125h428V422a20,20,0,0,1-20,20H787a20,20,0,0,1-20-20Z"/>
      <path class="cls-10" d="M984.34,383.23a28.48,28.48,0,0,0,28.41-28.41V297.35a28.5,28.5,0,0,0-28.41-28.43h0a28.53,28.53,0,0,0-28.44,28.43v57.47a28.51,28.51,0,0,0,28.44,28.41Z"/>
      <path class="cls-11" d="M981.9,268.92h4.85a26.1,26.1,0,0,1,26,26V315.3c-18,15.33-43.22,24.23-56.85,23V294.94a26.09,26.09,0,0,1,26-26Z"/>
      <path class="cls-10" d="M911,235.88a58.69,58.69,0,0,1,3.22-18.94l.14-.53a59,59,0,0,1,114.32,12.64c3.52,12.55-5.56,41.51-11.13,57.28a40.65,40.65,0,0,1-12.89,18.23c-20,16.09-68.32,42.32-85.45,18C903.88,300.82,907.33,262.55,911,235.88Z"/>
      <path class="cls-5" d="M929.1,282s6.55,6.32,16.48,0"/>
      <path class="cls-12" d="M990.61,254a1.43,1.43,0,0,0,.87-.3,1.49,1.49,0,0,0,.34-2.11c-8.6-12.07-24.9-4.94-25.06-4.85a1.52,1.52,0,0,0,1.24,2.78c.57-.25,14.18-6.18,21.33,3.84a1.56,1.56,0,0,0,1.26.64Z"/>
      <path class="cls-12" d="M909.53,247.75l.35-3.06A29.3,29.3,0,0,1,922,246.8a1.53,1.53,0,0,1-1.26,2.78,25.13,25.13,0,0,0-11.22-1.84Z"/>
      <path class="cls-12" d="M951.76,273.7a1.54,1.54,0,0,0,1.22-.57c.58-.76,14.87-18.21,36.78-5.15a1.52,1.52,0,0,0,2.09-.53,1.54,1.54,0,0,0-.55-2.09,31.08,31.08,0,0,0-40.8,5.89,1.56,1.56,0,0,0,.25,2.14,1.61,1.61,0,0,0,1,.32Z"/>
      <path class="cls-12" d="M908.46,259.65a31.79,31.79,0,0,1,21.61,9.47,1.52,1.52,0,0,1,0,2.16,1.54,1.54,0,0,1-2.16,0,28.92,28.92,0,0,0-19.72-8.73Z"/>
      <path class="cls-1" d="M960.36,300c-17.31,15.7-36.5,1.4-36.5,1.4Z"/>
      <path class="cls-10" d="M1046.59,272.89a22.87,22.87,0,1,0-1.74,8.74,22.85,22.85,0,0,0,1.74-8.74Z"/>
      <path class="cls-5" d="M1013.23,275.1s7.31-18.64,27-14.51"/>
      <path class="cls-12" d="M1044.5,223.22a20.19,20.19,0,0,0-5.15-5.56,30.48,30.48,0,0,0,6.23-10.64c4.41-12.78.16-28.23-12.58-34.3a25,25,0,0,0-17.28-1.84,14.85,14.85,0,0,0-2.42-4.6c-3.24-4.16-9.74-6.76-16.09-6.9-5-11-18.67-17.79-30.37-16.23a16.34,16.34,0,0,0-15.56,17.49c-1.65.21-3.24.48-4.6.74a31,31,0,0,0-9.2,3,21.83,21.83,0,0,0-19.31-2.69c-9.08,3.36-16.3,13.79-15.36,23.68a20.69,20.69,0,0,0-9.19,15.45c-.71,6.23,1.22,14.94,8,17.2a7.08,7.08,0,0,0,2.16.35,11.06,11.06,0,0,0,.57,2.3,14.82,14.82,0,0,0,2.07,3.79,15.8,15.8,0,0,0,.48,2.3,12.35,12.35,0,0,0,12.64,8.3,19.49,19.49,0,0,0,14.23-8,17.39,17.39,0,0,0,.53,1.86c2.3,6.9,8.76,8.3,14.85,5.24a30.6,30.6,0,0,0,11-10.62,9.19,9.19,0,0,0,6.16,3.4,15.09,15.09,0,0,0,6.9-.74c0,5.88,2.48,10.55,10.37,10.85a16.86,16.86,0,0,0,7.56-1.45c-.3,5.29.9,10.76,5.4,14.09a15.93,15.93,0,0,0,16.69.76h0a1.74,1.74,0,0,0,.25.64c3.38,6.6,10.9,7.86,17.36,5.31a27.29,27.29,0,0,0,14.5-14.14,20.42,20.42,0,0,0-.82-19.13Z"/>
      <path class="cls-13" d="M850.46,680.07l3-1.61a42.79,42.79,0,0,0,15.84-14.32,44.65,44.65,0,0,0,9.4-15.77L959.81,412a45.22,45.22,0,0,0-28-57.28h0a45.22,45.22,0,0,0-57.28,28.07l-59,171.95"/>
      <path class="cls-13" d="M1194.23,662.94c-21.95,11.49-48.52,4.6-59.07-15.33L1016.93,423.28c-10.55-20-1.22-45.81,20.69-57.47,21.95-11.49,48.53-4.6,59.08,15.33l118.22,224.33C1225.5,625.57,1216.16,651.38,1194.23,662.94Z"/>
      <path class="cls-13" d="M1041.3,352.43l-11.49-1.22c-13.66-.92-99.17-.16-111.59,1.33L846.11,686.48h228.64l37.14-261.11C1108.24,376.08,1076.42,357.46,1041.3,352.43Z"/>
    </g>
  </g>
  <path class="cls-6" d="M767,124.34h429"/>
  <path class="cls-6" d="M1187.37,81H775.63A8.63,8.63,0,0,0,767,89.63V432.57a8.63,8.63,0,0,0,8.63,8.63h411.74a8.63,8.63,0,0,0,8.63-8.63V89.63A8.63,8.63,0,0,0,1187.37,81Z"/>
  <path class="cls-6" d="M800,102.47a6.5,6.5,0,1,1-1.89-4.56,6.5,6.5,0,0,1,1.89,4.56Z"/>
  <path class="cls-6" d="M828,102.47a6.5,6.5,0,1,1-1.91-4.58,6.5,6.5,0,0,1,1.91,4.58Z"/>
  <path class="cls-6" d="M854,102.5a6.47,6.47,0,1,1-.49-2.5,6.5,6.5,0,0,1,.49,2.5Z"/>
  <path class="cls-15" d="M179,180H826.47a17,17,0,0,1,17,17V560a17,17,0,0,1-17,17H179a17,17,0,0,1-17-17V197A17,17,0,0,1,179,180Z"/>
  <path class="cls-16" d="M159,160H806.47a17,17,0,0,1,17,17V540a17,17,0,0,1-17,17H159a17,17,0,0,1-17-17V177A17,17,0,0,1,159,160Z"/>
  <path class="cls-17" d="M139,206.17H824.72v333a20,20,0,0,1-20,20H159a20,20,0,0,1-20-20Z"/>
  <path class="cls-9" d="M139,206H826V539.49a20,20,0,0,1-20,20H159a20,20,0,0,1-20-20Z"/>
  <g class="cls-18">
    <g>
      <path class="cls-19" d="M485.83,426.8s84.26-15.67,173.38-5.29c26.38,3.06,28.38,26,24.34,50.81L657.7,641.95l-202.84-1.71Z"/>
      <path class="cls-20" d="M421.14,333.83c.44-1.1,19-50.09,22.09-74.76a7.31,7.31,0,0,0-1.4-5.38,7.56,7.56,0,0,0-4.82-2.91,7.47,7.47,0,0,0-5.11,1.19,7.24,7.24,0,0,0-3,4.24L423,277.59l2.87-22.68a7.29,7.29,0,0,0-1.52-5.55,7.47,7.47,0,0,0-2.27-1.91,7.59,7.59,0,0,0-2.84-.89h0a7.45,7.45,0,0,0-4.85,1.34,7.23,7.23,0,0,0-2.84,4.09c-2.43,8.72-6.72,24-6.72,23.52s.66-11.4,1.14-19.44a7.37,7.37,0,0,0-.41-3.1,7.46,7.46,0,0,0-1.67-2.66,7.61,7.61,0,0,0-2.63-1.76,7.35,7.35,0,0,0-7.87,1.47,7.43,7.43,0,0,0-2.33,4.53l-3,21.92L385.21,264a6.76,6.76,0,0,0-1.14-2.58,6.87,6.87,0,0,0-2.11-1.91,7,7,0,0,0-5.57-.65,7.17,7.17,0,0,0-3.95,3.19,7,7,0,0,0-.8,5l4.79,19.17S365,330.43,365.49,329.7,421.14,333.83,421.14,333.83Z"/>
      <path class="cls-21" d="M425.42,300.24a29.1,29.1,0,0,0-13.32-16,7.07,7.07,0,0,0-7.45.32,7.49,7.49,0,0,0-2.13,10.18l5.05,8s-7.69-6.07-21.06,5.82"/>
      <path class="cls-22" d="M356,346.34l5.56-18.82h62.8l-6.49,26.29Z"/>
      <path class="cls-19" d="M391.83,462.13l35.69-120.56-76-1.42L320.26,446.43Z"/>
      <path class="cls-19" d="M541.09,420.06c-108.16,7.41-218.6,18.9-218.6,18.9l-5.86,19.75A37.09,37.09,0,0,0,333,501.41a35.21,35.21,0,0,0,21.48,4.7l144.27-9.29Z"/>
      <path class="cls-23" d="M475.26,498.77l5.9-36.65L457,500Z"/>
      <path class="cls-19" d="M775.26,639.77a35.84,35.84,0,0,0,17.24-53.84L691.93,438.69A35.29,35.29,0,0,0,640.56,431h0c-14.23,11.51-28.34,32-18.2,47.21l107.4,148c9.19,13.6,30.11,19.2,45.51,13.55Z"/>
      <path class="cls-24" d="M671.49,546.25l8.41-53.63"/>
      <path class="cls-25" d="M590.84,261.27s51.32,0,56,44.36c1,9.31,5.7,17.46,11.57,24.54,14.2,17.13,20.12,40.31.71,75.62,0,0-89,14.82-145.08-14.41,0,0-13.48-48,12.93-69.52,10.79-8.78,10.9-22.41,10.9-22.41Z"/>
      <path class="cls-26" d="M564,330.43a16,16,0,0,1-5.66,11,16.93,16.93,0,0,1-12,3.93,16.65,16.65,0,0,1-11.05-5.83,15.7,15.7,0,0,1-3.62-11.69,15.42,15.42,0,0,1,1.59-6.1,15.86,15.86,0,0,1,3.92-5,16.41,16.41,0,0,1,5.63-3.13,16.71,16.71,0,0,1,12.67,1,16.18,16.18,0,0,1,5,4,15.65,15.65,0,0,1,3,5.57,15.36,15.36,0,0,1,.54,6.27Z"/>
      <path class="cls-20" d="M563.12,376.86l-5.88,38.2c-2.1,13.4,4.78,21.76,17.57,23.57,10.86,1.58,23.68-1.81,25-13.76l6.46-60.54Z"/>
      <path class="cls-20" d="M541.31,420.39,573.49,418H600l23.1,1.45S622,450.15,568,446C531.21,443,541.31,420.39,541.31,420.39Z"/>
      <path class="cls-26" d="M556.87,414.8l52.58-40.22-46.18-1.85Z"/>
      <path class="cls-20" d="M572.13,389.38c-21.85-3.33-37.24-24-35-42.55L542.56,303c2.77-23.29,22.92-40.29,45.52-38.43,23.18,1.91,44.32,23.18,42.26,47.11l-4.77,35.19C621.91,374.09,598.62,391.57,572.13,389.38Z"/>
      <path class="cls-25" d="M554.73,334.86a3.49,3.49,0,0,1-1,1.94,4.35,4.35,0,0,1-2.08,1.11,4.79,4.79,0,0,1-2.44-.08,4.23,4.23,0,0,1-2-1.24,3.41,3.41,0,0,1-.86-2,3.32,3.32,0,0,1,.55-2.08,4,4,0,0,1,1.77-1.46,4.75,4.75,0,0,1,2.4-.36,4.44,4.44,0,0,1,2.79,1.43,3.41,3.41,0,0,1,.85,2.73Z"/>
      <path class="cls-25" d="M586.27,338.72a4.21,4.21,0,1,1-3.71-4.87,4.29,4.29,0,0,1,3.61,3.18,4.26,4.26,0,0,1,.09,1.69Z"/>
      <path class="cls-27" d="M556.87,357l22.08,4s-1.06,8.53-12.82,6.11C556.87,365.1,556.87,357,556.87,357Z"/>
      <path class="cls-27" d="M561.07,346.36s3-4.6,7.36.09"/>
      <path class="cls-12" d="M540.81,320.4a1.12,1.12,0,0,1-.57-.43,1.24,1.24,0,0,1-.18-.89,1.22,1.22,0,0,1,.47-.77c9.16-6.62,19,2.79,19.07,2.89a1.2,1.2,0,0,1,.3.38,1.22,1.22,0,0,1-.19,1.36,1.17,1.17,0,0,1-.39.28,1.13,1.13,0,0,1-.93,0,1.17,1.17,0,0,1-.38-.29c-.34-.33-8.54-8.16-16.15-2.66a1.11,1.11,0,0,1-1,.14Z"/>
      <path class="cls-12" d="M593.74,327.52a1.12,1.12,0,0,0,.61-.27,1.2,1.2,0,0,0,.38-.8,1.22,1.22,0,0,0-.27-.85c-7-8.57-18-1.92-18.19-1.92a1.18,1.18,0,0,0-.44.7,1.24,1.24,0,0,0,.11.83,1.12,1.12,0,0,0,.6.54,1,1,0,0,0,.79,0c.4-.23,9.71-5.77,15.47,1.4a1.09,1.09,0,0,0,.42.33,1,1,0,0,0,.52.08Z"/>
      <path class="cls-25" d="M564.14,287.35s3,22.54,62,36.26l5,1.81s18.35-46.17-27.91-62.9c-9.61-3.47-29.32-2.62-39.23,0-14.12,3.83-33.61,15.78-36.54,45.33C527.42,307.92,556.53,306.56,564.14,287.35Z"/>
      <path class="cls-25" d="M610.5,316c0,1.83,5.12,29.44,5.12,29.44l23.27-26.25Z"/>
      <path class="cls-20" d="M647.21,345.21a17,17,0,0,1-6,11.71,17.09,17.09,0,0,1-19.33,2.28,17.46,17.46,0,0,1-5.3-4.24,16.88,16.88,0,0,1-3.22-5.89,16.56,16.56,0,0,1-.64-6.64,17,17,0,0,1,6-11.73,17.11,17.11,0,0,1,19.36-2.24,17.43,17.43,0,0,1,5.28,4.24,16.85,16.85,0,0,1,3.2,5.89,16.52,16.52,0,0,1,.63,6.63Z"/>
      <path class="cls-28" d="M623.12,348.55s1.08-13.16,12.62-10"/>
      <path class="cls-25" d="M527.42,308.24l10.8.35L541.09,297Z"/>
      <path class="cls-25" d="M659.09,257.42c2.79-18-9.09-34.82-26.54-37.52s-33.87,9.71-36.66,27.73,9.09,34.82,26.54,37.52S656.3,275.44,659.09,257.42Z"/>
      <path class="cls-1" d="M642.49,286.47a2.67,2.67,0,0,1-2-.92c-19-21.63-46.18-24.18-46.46-24.18a2.68,2.68,0,1,1,.46-5.35c1.2.11,29.59,2.79,50,26a2.67,2.67,0,0,1-2,4.45Z"/>
      <path class="cls-29" d="M537.82,554.55H416.18v-15H525.43a7.69,7.69,0,0,1,6.87,4.21Z"/>
      <path class="cls-25" d="M171.66,426.63l64,128H443.48l-66.08-128a11.44,11.44,0,0,0-10.14-6.16H175.44a4.22,4.22,0,0,0-3.78,6.16Z"/>
      <path class="cls-30" d="M309.53,484.7c4.63,8,2.52,17.92-4.73,22s-16.87,1.05-21.52-7-2.52-17.92,4.73-22S304.88,476.66,309.53,484.7Z"/>
    </g>
  </g>
  <path class="cls-6" d="M139.88,206.17H821.2"/>
  <path class="cls-6" d="M176,183.47a6.5,6.5,0,1,1-1.89-4.56,6.51,6.51,0,0,1,1.89,4.56Z"/>
  <path class="cls-6" d="M204,183.47a6.5,6.5,0,1,1-1.91-4.58,6.5,6.5,0,0,1,1.91,4.58Z"/>
  <path class="cls-6" d="M230,183.5a6.47,6.47,0,1,1-.49-2.5,6.5,6.5,0,0,1,.49,2.5Z"/>
  <rect class="cls-31" x="142" y="160" width="681.47" height="397" rx="17" ry="17"/>
  <circle class="cls-32" cx="1196" cy="283" r="29"/>
  <circle class="cls-33" cx="835" cy="455" r="49"/>
  <path class="cls-15" d="M1259.39,511.82v31.65l-14-16.37-.89-1.05H1098.45a9.43,9.43,0,0,1-9.45-9.44V446a9.46,9.46,0,0,1,9.45-9.44h151.34a9.4,9.4,0,0,1,6.82,2.74,9.57,9.57,0,0,1,2.08,3.13,9.72,9.72,0,0,1,.7,3.69v65.69Z"/>
  <path class="cls-14" d="M1144.37,480.28a8,8,0,0,1-4.89,7.37,8,8,0,1,1,4.89-7.37Z"/>
  <path class="cls-14" d="M1178.39,480.18a8.06,8.06,0,0,1-1.32,4.42,7.95,7.95,0,1,1,1.32-4.42Z"/>
  <path class="cls-14" d="M1212.41,480.08a7.91,7.91,0,1,1-4.92-7.36,7.92,7.92,0,0,1,4.32,4.3,8,8,0,0,1,.6,3.05Z"/>
  <path class="cls-34" d="M1249.39,501.82v31.65l-14-16.37-.89-1.05H1088.45a9.43,9.43,0,0,1-9.45-9.44V436a9.46,9.46,0,0,1,9.45-9.44h151.34a9.4,9.4,0,0,1,6.82,2.74,9.57,9.57,0,0,1,2.08,3.13,9.72,9.72,0,0,1,.7,3.69v65.69Z"/>
  <path class="cls-6" d="M1134.37,470.28a8,8,0,0,1-4.89,7.37,8,8,0,1,1,4.89-7.37Z"/>
  <path class="cls-6" d="M1168.39,470.18a8.06,8.06,0,0,1-1.32,4.42,7.95,7.95,0,1,1,1.32-4.42Z"/>
  <path class="cls-6" d="M1202.41,470.08a7.91,7.91,0,1,1-4.92-7.36,7.92,7.92,0,0,1,4.32,4.3,8,8,0,0,1,.6,3.05Z"/>
  <path class="cls-15" d="M88,332.26v31.65l14-16.37.9-1.05H249A9.44,9.44,0,0,0,258.4,337v-70.6a9.46,9.46,0,0,0-9.45-9.44H97.61a9.44,9.44,0,0,0-9.6,9.56v65.69Z"/>
  <path class="cls-14" d="M203,300.71a7.94,7.94,0,1,0,2.31-5.57,8,8,0,0,0-2.31,5.57Z"/>
  <path class="cls-14" d="M169,300.61a7.94,7.94,0,1,0,2.33-5.6,7.95,7.95,0,0,0-2.33,5.6Z"/>
  <path class="cls-14" d="M135,300.52a7.91,7.91,0,1,0,.6-3.05,8,8,0,0,0-.6,3.05Z"/>
  <path class="cls-35" d="M78,322.26v31.65l14-16.37.9-1.05H239A9.44,9.44,0,0,0,248.4,327v-70.6a9.46,9.46,0,0,0-9.45-9.44H87.61a9.44,9.44,0,0,0-9.6,9.56v65.69Z"/>
  <path class="cls-6" d="M193,290.71a7.94,7.94,0,1,0,2.31-5.57,8,8,0,0,0-2.31,5.57Z"/>
  <path class="cls-6" d="M159,290.61a7.94,7.94,0,1,0,2.33-5.6,7.95,7.95,0,0,0-2.33,5.6Z"/>
  <path class="cls-6" d="M125,290.52a7.91,7.91,0,1,0,.6-3.05,8,8,0,0,0-.6,3.05Z"/>
  <path class="cls-36" d="M109,109l18-12.16L145,109l18-12.16L181,109l18-12.16L217,109"/>
  <path class="cls-36" d="M109,92.16,127,80l18,12.16L163,80l18,12.16L199,80l18,12.16"/>
  <path class="cls-36" d="M1174,198l18-12.16L1210,198l18-12.16L1246,198l18-12.16L1282,198"/>
  <path class="cls-36" d="M1174,181.16,1192,169l18,12.16L1228,169l18,12.16L1264,169l18,12.16"/>
</svg>
