<svg id="Layer_1" data-name="Layer 1" xmlns="http://www.w3.org/2000/svg" xmlns:xlink="http://www.w3.org/1999/xlink" viewBox="0 0 581 431">
  <defs>
    <style>
      .cls-1 {
        fill: none;
      }

      .cls-2, .cls-3, .cls-4, .cls-6, .cls-7, .cls-8 {
        stroke: #000;
        stroke-width: 6px;
      }

      .cls-3 {
        fill: #95ddeb;
      }

      .cls-4 {
        fill: #ffd74e;
      }

      .cls-5 {
        clip-path: url(#clip-path);
      }

      .cls-6 {
        fill: #75be8a;
      }

      .cls-7 {
        fill: #ffe8e8;
      }

      .cls-7, .cls-8 {
        stroke-miterlimit: 10;
      }

      .cls-8 {
        fill: #e8505b;
      }
    </style>
    <clipPath id="clip-path">
      <path class="cls-1" d="M478.38,312.38h3V94.08a8,8,0,0,0-8-8H86.49a8,8,0,0,0-8,8v218.3H478.38Z"/>
    </clipPath>
  </defs>
  <title>Into_illustration2_new</title>
  <path class="cls-2" d="M43.13,332.14H557a33.34,33.34,0,0,1-33.2,30.33H76.33A33.34,33.34,0,0,1,43.13,332.14Z"/>
  <path class="cls-2" d="M76.85,105a20,20,0,0,1,20-20H503.4a20,20,0,0,1,20,20V330.82H76.85Z"/>
  <path class="cls-2" d="M498.38,332.38h3V114.08a8,8,0,0,0-8-8H106.49a8,8,0,0,0-8,8v218.3H498.38Z"/>
  <circle class="cls-2" cx="306.45" cy="226.01" r="84.32"/>
  <circle class="cls-2" cx="293.79" cy="213.35" r="84.32"/>
  <path class="cls-3" d="M23.13,312.14H537a33.34,33.34,0,0,1-33.2,30.33H56.33A33.34,33.34,0,0,1,23.13,312.14Z"/>
  <path class="cls-3" d="M57,85A20,20,0,0,1,77,65H483.55a20,20,0,0,1,20,20V310.82H57Z"/>
  <path class="cls-4" d="M478.38,312.38h3V94.08a8,8,0,0,0-8-8H86.49a8,8,0,0,0-8,8v218.3H478.38Z"/>
  <g class="cls-5">
    <g>
      <g>
        <circle cx="493.99" cy="5.62" r="2.29"/>
        <circle cx="514.89" cy="5.62" r="2.29"/>
        <circle cx="535.79" cy="5.62" r="2.29"/>
        <circle cx="556.7" cy="5.62" r="2.29"/>
        <circle cx="577.6" cy="5.62" r="2.29"/>
      </g>
      <g>
        <circle cx="483.33" cy="24.07" r="2.29"/>
        <circle cx="504.23" cy="24.07" r="2.29"/>
        <circle cx="525.14" cy="24.07" r="2.29"/>
        <circle cx="546.04" cy="24.07" r="2.29"/>
        <circle cx="566.94" cy="24.07" r="2.29"/>
      </g>
      <g>
        <circle cx="493.99" cy="42.53" r="2.29"/>
        <circle cx="514.89" cy="42.53" r="2.29"/>
        <circle cx="535.79" cy="42.53" r="2.29"/>
        <circle cx="556.7" cy="42.53" r="2.29"/>
        <circle cx="577.6" cy="42.53" r="2.29"/>
      </g>
      <g>
        <circle cx="483.33" cy="60.99" r="2.29"/>
        <circle cx="504.23" cy="60.99" r="2.29"/>
        <circle cx="525.14" cy="60.99" r="2.29"/>
        <circle cx="546.04" cy="60.99" r="2.29"/>
        <circle cx="566.94" cy="60.99" r="2.29"/>
      </g>
      <g>
        <circle cx="493.99" cy="79.44" r="2.29"/>
        <circle cx="514.89" cy="79.44" r="2.29"/>
        <circle cx="535.79" cy="79.44" r="2.29"/>
        <circle cx="556.7" cy="79.44" r="2.29"/>
        <circle cx="577.6" cy="79.44" r="2.29"/>
      </g>
      <g>
        <circle cx="483.33" cy="97.9" r="2.29"/>
        <circle cx="504.23" cy="97.9" r="2.29"/>
        <circle cx="525.14" cy="97.9" r="2.29"/>
        <circle cx="546.04" cy="97.9" r="2.29"/>
        <circle cx="566.94" cy="97.9" r="2.29"/>
      </g>
      <g>
        <circle cx="493.99" cy="116.35" r="2.29"/>
        <circle cx="514.89" cy="116.35" r="2.29"/>
        <circle cx="535.79" cy="116.35" r="2.29"/>
        <circle cx="556.7" cy="116.35" r="2.29"/>
        <circle cx="577.6" cy="116.35" r="2.29"/>
      </g>
      <g>
        <circle cx="483.33" cy="134.81" r="2.29"/>
        <circle cx="504.23" cy="134.81" r="2.29"/>
        <circle cx="525.14" cy="134.81" r="2.29"/>
        <circle cx="546.04" cy="134.81" r="2.29"/>
        <circle cx="566.94" cy="134.81" r="2.29"/>
      </g>
      <g>
        <circle cx="493.99" cy="153.27" r="2.29"/>
        <circle cx="514.89" cy="153.27" r="2.29"/>
        <circle cx="535.79" cy="153.27" r="2.29"/>
        <circle cx="556.7" cy="153.27" r="2.29"/>
        <circle cx="577.6" cy="153.27" r="2.29"/>
      </g>
      <g>
        <circle cx="483.33" cy="171.72" r="2.29"/>
        <circle cx="504.23" cy="171.72" r="2.29"/>
        <circle cx="525.14" cy="171.72" r="2.29"/>
        <circle cx="546.04" cy="171.72" r="2.29"/>
        <circle cx="566.94" cy="171.72" r="2.29"/>
      </g>
    </g>
    <g>
      <g>
        <circle cx="243.16" cy="5.62" r="2.29"/>
        <circle cx="264.06" cy="5.62" r="2.29"/>
        <circle cx="284.97" cy="5.62" r="2.29"/>
        <circle cx="305.87" cy="5.62" r="2.29"/>
        <circle cx="326.77" cy="5.62" r="2.29"/>
        <circle cx="347.68" cy="5.62" r="2.29"/>
        <circle cx="368.58" cy="5.62" r="2.29"/>
        <circle cx="389.48" cy="5.62" r="2.29"/>
        <circle cx="410.38" cy="5.62" r="2.29"/>
        <circle cx="431.29" cy="5.62" r="2.29"/>
        <circle cx="452.19" cy="5.62" r="2.29"/>
        <circle cx="473.09" cy="5.62" r="2.29"/>
      </g>
      <g>
        <circle cx="232.5" cy="24.07" r="2.29"/>
        <circle cx="253.41" cy="24.07" r="2.29"/>
        <circle cx="274.31" cy="24.07" r="2.29"/>
        <circle cx="295.21" cy="24.07" r="2.29"/>
        <circle cx="316.11" cy="24.07" r="2.29"/>
        <circle cx="337.02" cy="24.07" r="2.29"/>
        <circle cx="357.92" cy="24.07" r="2.29"/>
        <circle cx="378.82" cy="24.07" r="2.29"/>
        <circle cx="399.73" cy="24.07" r="2.29"/>
        <circle cx="420.63" cy="24.07" r="2.29"/>
        <circle cx="441.53" cy="24.07" r="2.29"/>
        <circle cx="462.43" cy="24.07" r="2.29"/>
        <circle cx="483.34" cy="24.07" r="2.29"/>
      </g>
      <g>
        <circle cx="243.16" cy="42.53" r="2.29"/>
        <circle cx="264.06" cy="42.53" r="2.29"/>
        <circle cx="284.97" cy="42.53" r="2.29"/>
        <circle cx="305.87" cy="42.53" r="2.29"/>
        <circle cx="326.77" cy="42.53" r="2.29"/>
        <circle cx="347.68" cy="42.53" r="2.29"/>
        <circle cx="368.58" cy="42.53" r="2.29"/>
        <circle cx="389.48" cy="42.53" r="2.29"/>
        <circle cx="410.38" cy="42.53" r="2.29"/>
        <circle cx="431.29" cy="42.53" r="2.29"/>
        <circle cx="452.19" cy="42.53" r="2.29"/>
        <circle cx="473.09" cy="42.53" r="2.29"/>
      </g>
      <g>
        <circle cx="232.5" cy="60.99" r="2.29"/>
        <circle cx="253.41" cy="60.99" r="2.29"/>
        <circle cx="274.31" cy="60.99" r="2.29"/>
        <circle cx="295.21" cy="60.99" r="2.29"/>
        <circle cx="316.11" cy="60.99" r="2.29"/>
        <circle cx="337.02" cy="60.99" r="2.29"/>
        <circle cx="357.92" cy="60.99" r="2.29"/>
        <circle cx="378.82" cy="60.99" r="2.29"/>
        <circle cx="399.73" cy="60.99" r="2.29"/>
        <circle cx="420.63" cy="60.99" r="2.29"/>
        <circle cx="441.53" cy="60.99" r="2.29"/>
        <circle cx="462.43" cy="60.99" r="2.29"/>
        <circle cx="483.34" cy="60.99" r="2.29"/>
      </g>
      <g>
        <circle cx="243.16" cy="79.44" r="2.29"/>
        <circle cx="264.06" cy="79.44" r="2.29"/>
        <circle cx="284.97" cy="79.44" r="2.29"/>
        <circle cx="305.87" cy="79.44" r="2.29"/>
        <circle cx="326.77" cy="79.44" r="2.29"/>
        <circle cx="347.68" cy="79.44" r="2.29"/>
        <circle cx="368.58" cy="79.44" r="2.29"/>
        <circle cx="389.48" cy="79.44" r="2.29"/>
        <circle cx="410.38" cy="79.44" r="2.29"/>
        <circle cx="431.29" cy="79.44" r="2.29"/>
        <circle cx="452.19" cy="79.44" r="2.29"/>
        <circle cx="473.09" cy="79.44" r="2.29"/>
      </g>
      <g>
        <circle cx="232.5" cy="97.9" r="2.29"/>
        <circle cx="253.41" cy="97.9" r="2.29"/>
        <circle cx="274.31" cy="97.9" r="2.29"/>
        <circle cx="295.21" cy="97.9" r="2.29"/>
        <circle cx="316.11" cy="97.9" r="2.29"/>
        <circle cx="337.02" cy="97.9" r="2.29"/>
        <circle cx="357.92" cy="97.9" r="2.29"/>
        <circle cx="378.82" cy="97.9" r="2.29"/>
        <circle cx="399.73" cy="97.9" r="2.29"/>
        <circle cx="420.63" cy="97.9" r="2.29"/>
        <circle cx="441.53" cy="97.9" r="2.29"/>
        <circle cx="462.43" cy="97.9" r="2.29"/>
        <circle cx="483.34" cy="97.9" r="2.29"/>
      </g>
      <g>
        <circle cx="243.16" cy="116.35" r="2.29"/>
        <circle cx="264.06" cy="116.35" r="2.29"/>
        <circle cx="284.97" cy="116.35" r="2.29"/>
        <circle cx="305.87" cy="116.35" r="2.29"/>
        <circle cx="326.77" cy="116.35" r="2.29"/>
        <circle cx="347.68" cy="116.35" r="2.29"/>
        <circle cx="368.58" cy="116.35" r="2.29"/>
        <circle cx="389.48" cy="116.35" r="2.29"/>
        <circle cx="410.38" cy="116.35" r="2.29"/>
        <circle cx="431.29" cy="116.35" r="2.29"/>
        <circle cx="452.19" cy="116.35" r="2.29"/>
        <circle cx="473.09" cy="116.35" r="2.29"/>
      </g>
      <g>
        <circle cx="232.5" cy="134.81" r="2.29"/>
        <circle cx="253.41" cy="134.81" r="2.29"/>
        <circle cx="274.31" cy="134.81" r="2.29"/>
        <circle cx="295.21" cy="134.81" r="2.29"/>
        <circle cx="316.11" cy="134.81" r="2.29"/>
        <circle cx="337.02" cy="134.81" r="2.29"/>
        <circle cx="357.92" cy="134.81" r="2.29"/>
        <circle cx="378.82" cy="134.81" r="2.29"/>
        <circle cx="399.73" cy="134.81" r="2.29"/>
        <circle cx="420.63" cy="134.81" r="2.29"/>
        <circle cx="441.53" cy="134.81" r="2.29"/>
        <circle cx="462.43" cy="134.81" r="2.29"/>
        <circle cx="483.34" cy="134.81" r="2.29"/>
      </g>
      <g>
        <circle cx="243.16" cy="153.27" r="2.29"/>
        <circle cx="264.06" cy="153.27" r="2.29"/>
        <circle cx="284.97" cy="153.27" r="2.29"/>
        <circle cx="305.87" cy="153.27" r="2.29"/>
        <circle cx="326.77" cy="153.27" r="2.29"/>
        <circle cx="347.68" cy="153.27" r="2.29"/>
        <circle cx="368.58" cy="153.27" r="2.29"/>
        <circle cx="389.48" cy="153.27" r="2.29"/>
        <circle cx="410.38" cy="153.27" r="2.29"/>
        <circle cx="431.29" cy="153.27" r="2.29"/>
        <circle cx="452.19" cy="153.27" r="2.29"/>
        <circle cx="473.09" cy="153.27" r="2.29"/>
      </g>
      <g>
        <circle cx="232.5" cy="171.72" r="2.29"/>
        <circle cx="253.41" cy="171.72" r="2.29"/>
        <circle cx="274.31" cy="171.72" r="2.29"/>
        <circle cx="295.21" cy="171.72" r="2.29"/>
        <circle cx="316.11" cy="171.72" r="2.29"/>
        <circle cx="337.02" cy="171.72" r="2.29"/>
        <circle cx="357.92" cy="171.72" r="2.29"/>
        <circle cx="378.82" cy="171.72" r="2.29"/>
        <circle cx="399.73" cy="171.72" r="2.29"/>
        <circle cx="420.63" cy="171.72" r="2.29"/>
        <circle cx="441.53" cy="171.72" r="2.29"/>
        <circle cx="462.43" cy="171.72" r="2.29"/>
        <circle cx="483.34" cy="171.72" r="2.29"/>
      </g>
    </g>
    <g>
      <g>
        <circle cx="13.24" cy="5.65" r="2.29"/>
        <circle cx="34.14" cy="5.65" r="2.29"/>
        <circle cx="55.05" cy="5.65" r="2.29"/>
        <circle cx="75.95" cy="5.65" r="2.29"/>
        <circle cx="96.85" cy="5.65" r="2.29"/>
        <circle cx="117.76" cy="5.65" r="2.29"/>
        <circle cx="138.66" cy="5.65" r="2.29"/>
        <circle cx="159.56" cy="5.65" r="2.29"/>
        <circle cx="180.46" cy="5.65" r="2.29"/>
        <circle cx="201.37" cy="5.65" r="2.29"/>
        <circle cx="222.27" cy="5.65" r="2.29"/>
      </g>
      <g>
        <circle cx="2.58" cy="24.1" r="2.29"/>
        <circle cx="23.49" cy="24.1" r="2.29"/>
        <circle cx="44.39" cy="24.1" r="2.29"/>
        <circle cx="65.29" cy="24.1" r="2.29"/>
        <circle cx="86.19" cy="24.1" r="2.29"/>
        <circle cx="107.1" cy="24.1" r="2.29"/>
        <circle cx="128" cy="24.1" r="2.29"/>
        <circle cx="148.9" cy="24.1" r="2.29"/>
        <circle cx="169.81" cy="24.1" r="2.29"/>
        <circle cx="190.71" cy="24.1" r="2.29"/>
        <circle cx="211.61" cy="24.1" r="2.29"/>
        <circle cx="232.51" cy="24.1" r="2.29"/>
      </g>
      <g>
        <circle cx="13.24" cy="42.56" r="2.29"/>
        <circle cx="34.14" cy="42.56" r="2.29"/>
        <circle cx="55.05" cy="42.56" r="2.29"/>
        <circle cx="75.95" cy="42.56" r="2.29"/>
        <circle cx="96.85" cy="42.56" r="2.29"/>
        <circle cx="117.76" cy="42.56" r="2.29"/>
        <circle cx="138.66" cy="42.56" r="2.29"/>
        <circle cx="159.56" cy="42.56" r="2.29"/>
        <circle cx="180.46" cy="42.56" r="2.29"/>
        <circle cx="201.37" cy="42.56" r="2.29"/>
        <circle cx="222.27" cy="42.56" r="2.29"/>
      </g>
      <g>
        <circle cx="2.58" cy="61.02" r="2.29"/>
        <circle cx="23.49" cy="61.02" r="2.29"/>
        <circle cx="44.39" cy="61.02" r="2.29"/>
        <circle cx="65.29" cy="61.02" r="2.29"/>
        <circle cx="86.19" cy="61.02" r="2.29"/>
        <circle cx="107.1" cy="61.02" r="2.29"/>
        <circle cx="128" cy="61.02" r="2.29"/>
        <circle cx="148.9" cy="61.02" r="2.29"/>
        <circle cx="169.81" cy="61.02" r="2.29"/>
        <circle cx="190.71" cy="61.02" r="2.29"/>
        <circle cx="211.61" cy="61.02" r="2.29"/>
        <circle cx="232.51" cy="61.02" r="2.29"/>
      </g>
      <g>
        <circle cx="13.24" cy="79.47" r="2.29"/>
        <circle cx="34.14" cy="79.47" r="2.29"/>
        <circle cx="55.05" cy="79.47" r="2.29"/>
        <circle cx="75.95" cy="79.47" r="2.29"/>
        <circle cx="96.85" cy="79.47" r="2.29"/>
        <circle cx="117.76" cy="79.47" r="2.29"/>
        <circle cx="138.66" cy="79.47" r="2.29"/>
        <circle cx="159.56" cy="79.47" r="2.29"/>
        <circle cx="180.46" cy="79.47" r="2.29"/>
        <circle cx="201.37" cy="79.47" r="2.29"/>
        <circle cx="222.27" cy="79.47" r="2.29"/>
      </g>
      <g>
        <circle cx="2.58" cy="97.93" r="2.29"/>
        <circle cx="23.49" cy="97.93" r="2.29"/>
        <circle cx="44.39" cy="97.93" r="2.29"/>
        <circle cx="65.29" cy="97.93" r="2.29"/>
        <circle cx="86.19" cy="97.93" r="2.29"/>
        <circle cx="107.1" cy="97.93" r="2.29"/>
        <circle cx="128" cy="97.93" r="2.29"/>
        <circle cx="148.9" cy="97.93" r="2.29"/>
        <circle cx="169.81" cy="97.93" r="2.29"/>
        <circle cx="190.71" cy="97.93" r="2.29"/>
        <circle cx="211.61" cy="97.93" r="2.29"/>
        <circle cx="232.51" cy="97.93" r="2.29"/>
      </g>
      <g>
        <circle cx="13.24" cy="116.38" r="2.29"/>
        <circle cx="34.14" cy="116.38" r="2.29"/>
        <circle cx="55.05" cy="116.38" r="2.29"/>
        <circle cx="75.95" cy="116.38" r="2.29"/>
        <circle cx="96.85" cy="116.38" r="2.29"/>
        <circle cx="117.76" cy="116.38" r="2.29"/>
        <circle cx="138.66" cy="116.38" r="2.29"/>
        <circle cx="159.56" cy="116.38" r="2.29"/>
        <circle cx="180.46" cy="116.38" r="2.29"/>
        <circle cx="201.37" cy="116.38" r="2.29"/>
        <circle cx="222.27" cy="116.38" r="2.29"/>
      </g>
      <g>
        <circle cx="2.58" cy="134.84" r="2.29"/>
        <circle cx="23.49" cy="134.84" r="2.29"/>
        <circle cx="44.39" cy="134.84" r="2.29"/>
        <circle cx="65.29" cy="134.84" r="2.29"/>
        <circle cx="86.19" cy="134.84" r="2.29"/>
        <circle cx="107.1" cy="134.84" r="2.29"/>
        <circle cx="128" cy="134.84" r="2.29"/>
        <circle cx="148.9" cy="134.84" r="2.29"/>
        <circle cx="169.81" cy="134.84" r="2.29"/>
        <circle cx="190.71" cy="134.84" r="2.29"/>
        <circle cx="211.61" cy="134.84" r="2.29"/>
        <circle cx="232.51" cy="134.84" r="2.29"/>
      </g>
      <g>
        <circle cx="13.24" cy="153.3" r="2.29"/>
        <circle cx="34.14" cy="153.3" r="2.29"/>
        <circle cx="55.05" cy="153.3" r="2.29"/>
        <circle cx="75.95" cy="153.3" r="2.29"/>
        <circle cx="96.85" cy="153.3" r="2.29"/>
        <circle cx="117.76" cy="153.3" r="2.29"/>
        <circle cx="138.66" cy="153.3" r="2.29"/>
        <circle cx="159.56" cy="153.3" r="2.29"/>
        <circle cx="180.46" cy="153.3" r="2.29"/>
        <circle cx="201.37" cy="153.3" r="2.29"/>
        <circle cx="222.27" cy="153.3" r="2.29"/>
      </g>
      <g>
        <circle cx="2.58" cy="171.75" r="2.29"/>
        <circle cx="23.49" cy="171.75" r="2.29"/>
        <circle cx="44.39" cy="171.75" r="2.29"/>
        <circle cx="65.29" cy="171.75" r="2.29"/>
        <circle cx="86.19" cy="171.75" r="2.29"/>
        <circle cx="107.1" cy="171.75" r="2.29"/>
        <circle cx="128" cy="171.75" r="2.29"/>
        <circle cx="148.9" cy="171.75" r="2.29"/>
        <circle cx="169.81" cy="171.75" r="2.29"/>
        <circle cx="190.71" cy="171.75" r="2.29"/>
        <circle cx="211.61" cy="171.75" r="2.29"/>
        <circle cx="232.51" cy="171.75" r="2.29"/>
      </g>
    </g>
    <g>
      <g>
        <circle cx="483.33" cy="171.7" r="2.29"/>
        <circle cx="504.23" cy="171.7" r="2.29"/>
        <circle cx="525.14" cy="171.7" r="2.29"/>
        <circle cx="546.04" cy="171.7" r="2.29"/>
        <circle cx="566.94" cy="171.7" r="2.29"/>
      </g>
      <g>
        <circle cx="493.99" cy="190.15" r="2.29"/>
        <circle cx="514.89" cy="190.15" r="2.29"/>
        <circle cx="535.79" cy="190.15" r="2.29"/>
        <circle cx="556.7" cy="190.15" r="2.29"/>
        <circle cx="577.6" cy="190.15" r="2.29"/>
      </g>
      <g>
        <circle cx="483.33" cy="208.61" r="2.29"/>
        <circle cx="504.23" cy="208.61" r="2.29"/>
        <circle cx="525.14" cy="208.61" r="2.29"/>
        <circle cx="546.04" cy="208.61" r="2.29"/>
        <circle cx="566.94" cy="208.61" r="2.29"/>
      </g>
      <g>
        <circle cx="493.99" cy="227.06" r="2.29"/>
        <circle cx="514.89" cy="227.06" r="2.29"/>
        <circle cx="535.79" cy="227.06" r="2.29"/>
        <circle cx="556.7" cy="227.06" r="2.29"/>
        <circle cx="577.6" cy="227.06" r="2.29"/>
      </g>
      <g>
        <circle cx="483.33" cy="245.52" r="2.29"/>
        <circle cx="504.23" cy="245.52" r="2.29"/>
        <circle cx="525.14" cy="245.52" r="2.29"/>
        <circle cx="546.04" cy="245.52" r="2.29"/>
        <circle cx="566.94" cy="245.52" r="2.29"/>
      </g>
      <g>
        <circle cx="493.99" cy="263.98" r="2.29"/>
        <circle cx="514.89" cy="263.98" r="2.29"/>
        <circle cx="535.79" cy="263.98" r="2.29"/>
        <circle cx="556.7" cy="263.98" r="2.29"/>
        <circle cx="577.6" cy="263.98" r="2.29"/>
      </g>
      <g>
        <circle cx="483.33" cy="282.43" r="2.29"/>
        <circle cx="504.23" cy="282.43" r="2.29"/>
        <circle cx="525.14" cy="282.43" r="2.29"/>
        <circle cx="546.04" cy="282.43" r="2.29"/>
        <circle cx="566.94" cy="282.43" r="2.29"/>
      </g>
      <g>
        <circle cx="493.99" cy="300.89" r="2.29"/>
        <circle cx="514.89" cy="300.89" r="2.29"/>
        <circle cx="535.79" cy="300.89" r="2.29"/>
        <circle cx="556.7" cy="300.89" r="2.29"/>
        <circle cx="577.6" cy="300.89" r="2.29"/>
      </g>
      <g>
        <circle cx="483.33" cy="319.34" r="2.29"/>
        <circle cx="504.23" cy="319.34" r="2.29"/>
        <circle cx="525.14" cy="319.34" r="2.29"/>
        <circle cx="546.04" cy="319.34" r="2.29"/>
        <circle cx="566.94" cy="319.34" r="2.29"/>
      </g>
      <g>
        <circle cx="493.99" cy="337.8" r="2.29"/>
        <circle cx="514.89" cy="337.8" r="2.29"/>
        <circle cx="535.79" cy="337.8" r="2.29"/>
        <circle cx="556.7" cy="337.8" r="2.29"/>
        <circle cx="577.6" cy="337.8" r="2.29"/>
      </g>
      <g>
        <circle cx="483.33" cy="356.26" r="2.29"/>
        <circle cx="504.23" cy="356.26" r="2.29"/>
        <circle cx="525.14" cy="356.26" r="2.29"/>
        <circle cx="546.04" cy="356.26" r="2.29"/>
        <circle cx="566.94" cy="356.26" r="2.29"/>
      </g>
      <g>
        <circle cx="493.99" cy="374.71" r="2.29"/>
        <circle cx="514.89" cy="374.71" r="2.29"/>
        <circle cx="535.79" cy="374.71" r="2.29"/>
        <circle cx="556.7" cy="374.71" r="2.29"/>
        <circle cx="577.6" cy="374.71" r="2.29"/>
      </g>
      <g>
        <circle cx="483.33" cy="393.17" r="2.29"/>
        <circle cx="504.23" cy="393.17" r="2.29"/>
        <circle cx="525.14" cy="393.17" r="2.29"/>
        <circle cx="546.04" cy="393.17" r="2.29"/>
        <circle cx="566.94" cy="393.17" r="2.29"/>
      </g>
    </g>
    <g>
      <g>
        <circle cx="232.5" cy="171.7" r="2.29"/>
        <circle cx="253.41" cy="171.7" r="2.29"/>
        <circle cx="274.31" cy="171.7" r="2.29"/>
        <circle cx="295.21" cy="171.7" r="2.29"/>
        <circle cx="316.11" cy="171.7" r="2.29"/>
        <circle cx="337.02" cy="171.7" r="2.29"/>
        <circle cx="357.92" cy="171.7" r="2.29"/>
        <circle cx="378.82" cy="171.7" r="2.29"/>
        <circle cx="399.73" cy="171.7" r="2.29"/>
        <circle cx="420.63" cy="171.7" r="2.29"/>
        <circle cx="441.53" cy="171.7" r="2.29"/>
        <circle cx="462.43" cy="171.7" r="2.29"/>
        <circle cx="483.34" cy="171.7" r="2.29"/>
      </g>
      <g>
        <circle cx="243.16" cy="190.15" r="2.29"/>
        <circle cx="264.06" cy="190.15" r="2.29"/>
        <circle cx="284.97" cy="190.15" r="2.29"/>
        <circle cx="305.87" cy="190.15" r="2.29"/>
        <circle cx="326.77" cy="190.15" r="2.29"/>
        <circle cx="347.68" cy="190.15" r="2.29"/>
        <circle cx="368.58" cy="190.15" r="2.29"/>
        <circle cx="389.48" cy="190.15" r="2.29"/>
        <circle cx="410.38" cy="190.15" r="2.29"/>
        <circle cx="431.29" cy="190.15" r="2.29"/>
        <circle cx="452.19" cy="190.15" r="2.29"/>
        <circle cx="473.09" cy="190.15" r="2.29"/>
      </g>
      <g>
        <circle cx="232.5" cy="208.61" r="2.29"/>
        <circle cx="253.41" cy="208.61" r="2.29"/>
        <circle cx="274.31" cy="208.61" r="2.29"/>
        <circle cx="295.21" cy="208.61" r="2.29"/>
        <circle cx="316.11" cy="208.61" r="2.29"/>
        <circle cx="337.02" cy="208.61" r="2.29"/>
        <circle cx="357.92" cy="208.61" r="2.29"/>
        <circle cx="378.82" cy="208.61" r="2.29"/>
        <circle cx="399.73" cy="208.61" r="2.29"/>
        <circle cx="420.63" cy="208.61" r="2.29"/>
        <circle cx="441.53" cy="208.61" r="2.29"/>
        <circle cx="462.43" cy="208.61" r="2.29"/>
        <circle cx="483.34" cy="208.61" r="2.29"/>
      </g>
      <g>
        <circle cx="243.16" cy="227.06" r="2.29"/>
        <circle cx="264.06" cy="227.06" r="2.29"/>
        <circle cx="284.97" cy="227.06" r="2.29"/>
        <circle cx="305.87" cy="227.06" r="2.29"/>
        <circle cx="326.77" cy="227.06" r="2.29"/>
        <circle cx="347.68" cy="227.06" r="2.29"/>
        <circle cx="368.58" cy="227.06" r="2.29"/>
        <circle cx="389.48" cy="227.06" r="2.29"/>
        <circle cx="410.38" cy="227.06" r="2.29"/>
        <circle cx="431.29" cy="227.06" r="2.29"/>
        <circle cx="452.19" cy="227.06" r="2.29"/>
        <circle cx="473.09" cy="227.06" r="2.29"/>
      </g>
      <g>
        <circle cx="232.5" cy="245.52" r="2.29"/>
        <circle cx="253.41" cy="245.52" r="2.29"/>
        <circle cx="274.31" cy="245.52" r="2.29"/>
        <circle cx="295.21" cy="245.52" r="2.29"/>
        <circle cx="316.11" cy="245.52" r="2.29"/>
        <circle cx="337.02" cy="245.52" r="2.29"/>
        <circle cx="357.92" cy="245.52" r="2.29"/>
        <circle cx="378.82" cy="245.52" r="2.29"/>
        <circle cx="399.73" cy="245.52" r="2.29"/>
        <circle cx="420.63" cy="245.52" r="2.29"/>
        <circle cx="441.53" cy="245.52" r="2.29"/>
        <circle cx="462.43" cy="245.52" r="2.29"/>
        <circle cx="483.34" cy="245.52" r="2.29"/>
      </g>
      <g>
        <circle cx="243.16" cy="263.98" r="2.29"/>
        <circle cx="264.06" cy="263.98" r="2.29"/>
        <circle cx="284.97" cy="263.98" r="2.29"/>
        <circle cx="305.87" cy="263.98" r="2.29"/>
        <circle cx="326.77" cy="263.98" r="2.29"/>
        <circle cx="347.68" cy="263.98" r="2.29"/>
        <circle cx="368.58" cy="263.98" r="2.29"/>
        <circle cx="389.48" cy="263.98" r="2.29"/>
        <circle cx="410.38" cy="263.98" r="2.29"/>
        <circle cx="431.29" cy="263.98" r="2.29"/>
        <circle cx="452.19" cy="263.98" r="2.29"/>
        <circle cx="473.09" cy="263.98" r="2.29"/>
      </g>
      <g>
        <circle cx="232.5" cy="282.43" r="2.29"/>
        <circle cx="253.41" cy="282.43" r="2.29"/>
        <circle cx="274.31" cy="282.43" r="2.29"/>
        <circle cx="295.21" cy="282.43" r="2.29"/>
        <circle cx="316.11" cy="282.43" r="2.29"/>
        <circle cx="337.02" cy="282.43" r="2.29"/>
        <circle cx="357.92" cy="282.43" r="2.29"/>
        <circle cx="378.82" cy="282.43" r="2.29"/>
        <circle cx="399.73" cy="282.43" r="2.29"/>
        <circle cx="420.63" cy="282.43" r="2.29"/>
        <circle cx="441.53" cy="282.43" r="2.29"/>
        <circle cx="462.43" cy="282.43" r="2.29"/>
        <circle cx="483.34" cy="282.43" r="2.29"/>
      </g>
      <g>
        <circle cx="243.16" cy="300.89" r="2.29"/>
        <circle cx="264.06" cy="300.89" r="2.29"/>
        <circle cx="284.97" cy="300.89" r="2.29"/>
        <circle cx="305.87" cy="300.89" r="2.29"/>
        <circle cx="326.77" cy="300.89" r="2.29"/>
        <circle cx="347.68" cy="300.89" r="2.29"/>
        <circle cx="368.58" cy="300.89" r="2.29"/>
        <circle cx="389.48" cy="300.89" r="2.29"/>
        <circle cx="410.38" cy="300.89" r="2.29"/>
        <circle cx="431.29" cy="300.89" r="2.29"/>
        <circle cx="452.19" cy="300.89" r="2.29"/>
        <circle cx="473.09" cy="300.89" r="2.29"/>
      </g>
      <g>
        <circle cx="232.5" cy="319.34" r="2.29"/>
        <circle cx="253.41" cy="319.34" r="2.29"/>
        <circle cx="274.31" cy="319.34" r="2.29"/>
        <circle cx="295.21" cy="319.34" r="2.29"/>
        <circle cx="316.11" cy="319.34" r="2.29"/>
        <circle cx="337.02" cy="319.34" r="2.29"/>
        <circle cx="357.92" cy="319.34" r="2.29"/>
        <circle cx="378.82" cy="319.34" r="2.29"/>
        <circle cx="399.73" cy="319.34" r="2.29"/>
        <circle cx="420.63" cy="319.34" r="2.29"/>
        <circle cx="441.53" cy="319.34" r="2.29"/>
        <circle cx="462.43" cy="319.34" r="2.29"/>
        <circle cx="483.34" cy="319.34" r="2.29"/>
      </g>
      <g>
        <circle cx="243.16" cy="337.8" r="2.29"/>
        <circle cx="264.06" cy="337.8" r="2.29"/>
        <circle cx="284.97" cy="337.8" r="2.29"/>
        <circle cx="305.87" cy="337.8" r="2.29"/>
        <circle cx="326.77" cy="337.8" r="2.29"/>
        <circle cx="347.68" cy="337.8" r="2.29"/>
        <circle cx="368.58" cy="337.8" r="2.29"/>
        <circle cx="389.48" cy="337.8" r="2.29"/>
        <circle cx="410.38" cy="337.8" r="2.29"/>
        <circle cx="431.29" cy="337.8" r="2.29"/>
        <circle cx="452.19" cy="337.8" r="2.29"/>
        <circle cx="473.09" cy="337.8" r="2.29"/>
      </g>
      <g>
        <circle cx="232.5" cy="356.26" r="2.29"/>
        <circle cx="253.41" cy="356.26" r="2.29"/>
        <circle cx="274.31" cy="356.26" r="2.29"/>
        <circle cx="295.21" cy="356.26" r="2.29"/>
        <circle cx="316.11" cy="356.26" r="2.29"/>
        <circle cx="337.02" cy="356.26" r="2.29"/>
        <circle cx="357.92" cy="356.26" r="2.29"/>
        <circle cx="378.82" cy="356.26" r="2.29"/>
        <circle cx="399.73" cy="356.26" r="2.29"/>
        <circle cx="420.63" cy="356.26" r="2.29"/>
        <circle cx="441.53" cy="356.26" r="2.29"/>
        <circle cx="462.43" cy="356.26" r="2.29"/>
        <circle cx="483.34" cy="356.26" r="2.29"/>
      </g>
      <g>
        <circle cx="243.16" cy="374.71" r="2.29"/>
        <circle cx="264.06" cy="374.71" r="2.29"/>
        <circle cx="284.97" cy="374.71" r="2.29"/>
        <circle cx="305.87" cy="374.71" r="2.29"/>
        <circle cx="326.77" cy="374.71" r="2.29"/>
        <circle cx="347.68" cy="374.71" r="2.29"/>
        <circle cx="368.58" cy="374.71" r="2.29"/>
        <circle cx="389.48" cy="374.71" r="2.29"/>
        <circle cx="410.38" cy="374.71" r="2.29"/>
        <circle cx="431.29" cy="374.71" r="2.29"/>
        <circle cx="452.19" cy="374.71" r="2.29"/>
        <circle cx="473.09" cy="374.71" r="2.29"/>
      </g>
      <g>
        <circle cx="232.5" cy="393.17" r="2.29"/>
        <circle cx="253.41" cy="393.17" r="2.29"/>
        <circle cx="274.31" cy="393.17" r="2.29"/>
        <circle cx="295.21" cy="393.17" r="2.29"/>
        <circle cx="316.11" cy="393.17" r="2.29"/>
        <circle cx="337.02" cy="393.17" r="2.29"/>
        <circle cx="357.92" cy="393.17" r="2.29"/>
        <circle cx="378.82" cy="393.17" r="2.29"/>
        <circle cx="399.73" cy="393.17" r="2.29"/>
        <circle cx="420.63" cy="393.17" r="2.29"/>
        <circle cx="441.53" cy="393.17" r="2.29"/>
        <circle cx="462.43" cy="393.17" r="2.29"/>
        <circle cx="483.34" cy="393.17" r="2.29"/>
      </g>
    </g>
    <g>
      <g>
        <circle cx="2.58" cy="171.73" r="2.29"/>
        <circle cx="23.49" cy="171.73" r="2.29"/>
        <circle cx="44.39" cy="171.73" r="2.29"/>
        <circle cx="65.29" cy="171.73" r="2.29"/>
        <circle cx="86.19" cy="171.73" r="2.29"/>
        <circle cx="107.1" cy="171.73" r="2.29"/>
        <circle cx="128" cy="171.73" r="2.29"/>
        <circle cx="148.9" cy="171.73" r="2.29"/>
        <circle cx="169.81" cy="171.73" r="2.29"/>
        <circle cx="190.71" cy="171.73" r="2.29"/>
        <circle cx="211.61" cy="171.73" r="2.29"/>
        <circle cx="232.51" cy="171.73" r="2.29"/>
      </g>
      <g>
        <circle cx="13.24" cy="190.18" r="2.29"/>
        <circle cx="34.14" cy="190.18" r="2.29"/>
        <circle cx="55.05" cy="190.18" r="2.29"/>
        <circle cx="75.95" cy="190.18" r="2.29"/>
        <circle cx="96.85" cy="190.18" r="2.29"/>
        <circle cx="117.76" cy="190.18" r="2.29"/>
        <circle cx="138.66" cy="190.18" r="2.29"/>
        <circle cx="159.56" cy="190.18" r="2.29"/>
        <circle cx="180.46" cy="190.18" r="2.29"/>
        <circle cx="201.37" cy="190.18" r="2.29"/>
        <circle cx="222.27" cy="190.18" r="2.29"/>
      </g>
      <g>
        <circle cx="2.58" cy="208.64" r="2.29"/>
        <circle cx="23.49" cy="208.64" r="2.29"/>
        <circle cx="44.39" cy="208.64" r="2.29"/>
        <circle cx="65.29" cy="208.64" r="2.29"/>
        <circle cx="86.19" cy="208.64" r="2.29"/>
        <circle cx="107.1" cy="208.64" r="2.29"/>
        <circle cx="128" cy="208.64" r="2.29"/>
        <circle cx="148.9" cy="208.64" r="2.29"/>
        <circle cx="169.81" cy="208.64" r="2.29"/>
        <circle cx="190.71" cy="208.64" r="2.29"/>
        <circle cx="211.61" cy="208.64" r="2.29"/>
        <circle cx="232.51" cy="208.64" r="2.29"/>
      </g>
      <g>
        <circle cx="13.24" cy="227.09" r="2.29"/>
        <circle cx="34.14" cy="227.09" r="2.29"/>
        <circle cx="55.05" cy="227.09" r="2.29"/>
        <circle cx="75.95" cy="227.09" r="2.29"/>
        <circle cx="96.85" cy="227.09" r="2.29"/>
        <circle cx="117.76" cy="227.09" r="2.29"/>
        <circle cx="138.66" cy="227.09" r="2.29"/>
        <circle cx="159.56" cy="227.09" r="2.29"/>
        <circle cx="180.46" cy="227.09" r="2.29"/>
        <circle cx="201.37" cy="227.09" r="2.29"/>
        <circle cx="222.27" cy="227.09" r="2.29"/>
      </g>
      <g>
        <circle cx="2.58" cy="245.55" r="2.29"/>
        <circle cx="23.49" cy="245.55" r="2.29"/>
        <circle cx="44.39" cy="245.55" r="2.29"/>
        <circle cx="65.29" cy="245.55" r="2.29"/>
        <circle cx="86.19" cy="245.55" r="2.29"/>
        <circle cx="107.1" cy="245.55" r="2.29"/>
        <circle cx="128" cy="245.55" r="2.29"/>
        <circle cx="148.9" cy="245.55" r="2.29"/>
        <circle cx="169.81" cy="245.55" r="2.29"/>
        <circle cx="190.71" cy="245.55" r="2.29"/>
        <circle cx="211.61" cy="245.55" r="2.29"/>
        <circle cx="232.51" cy="245.55" r="2.29"/>
      </g>
      <g>
        <circle cx="13.24" cy="264.01" r="2.29"/>
        <circle cx="34.14" cy="264.01" r="2.29"/>
        <circle cx="55.05" cy="264.01" r="2.29"/>
        <circle cx="75.95" cy="264.01" r="2.29"/>
        <circle cx="96.85" cy="264.01" r="2.29"/>
        <circle cx="117.76" cy="264.01" r="2.29"/>
        <circle cx="138.66" cy="264.01" r="2.29"/>
        <circle cx="159.56" cy="264.01" r="2.29"/>
        <circle cx="180.46" cy="264.01" r="2.29"/>
        <circle cx="201.37" cy="264.01" r="2.29"/>
        <circle cx="222.27" cy="264.01" r="2.29"/>
      </g>
      <g>
        <circle cx="2.58" cy="282.46" r="2.29"/>
        <circle cx="23.49" cy="282.46" r="2.29"/>
        <circle cx="44.39" cy="282.46" r="2.29"/>
        <circle cx="65.29" cy="282.46" r="2.29"/>
        <circle cx="86.19" cy="282.46" r="2.29"/>
        <circle cx="107.1" cy="282.46" r="2.29"/>
        <circle cx="128" cy="282.46" r="2.29"/>
        <circle cx="148.9" cy="282.46" r="2.29"/>
        <circle cx="169.81" cy="282.46" r="2.29"/>
        <circle cx="190.71" cy="282.46" r="2.29"/>
        <circle cx="211.61" cy="282.46" r="2.29"/>
        <circle cx="232.51" cy="282.46" r="2.29"/>
      </g>
      <g>
        <circle cx="13.24" cy="300.92" r="2.29"/>
        <circle cx="34.14" cy="300.92" r="2.29"/>
        <circle cx="55.05" cy="300.92" r="2.29"/>
        <circle cx="75.95" cy="300.92" r="2.29"/>
        <circle cx="96.85" cy="300.92" r="2.29"/>
        <circle cx="117.76" cy="300.92" r="2.29"/>
        <circle cx="138.66" cy="300.92" r="2.29"/>
        <circle cx="159.56" cy="300.92" r="2.29"/>
        <circle cx="180.46" cy="300.92" r="2.29"/>
        <circle cx="201.37" cy="300.92" r="2.29"/>
        <circle cx="222.27" cy="300.92" r="2.29"/>
      </g>
      <g>
        <circle cx="2.58" cy="319.38" r="2.29"/>
        <circle cx="23.49" cy="319.38" r="2.29"/>
        <circle cx="44.39" cy="319.38" r="2.29"/>
        <circle cx="65.29" cy="319.38" r="2.29"/>
        <circle cx="86.19" cy="319.38" r="2.29"/>
        <circle cx="107.1" cy="319.38" r="2.29"/>
        <circle cx="128" cy="319.38" r="2.29"/>
        <circle cx="148.9" cy="319.38" r="2.29"/>
        <circle cx="169.81" cy="319.38" r="2.29"/>
        <circle cx="190.71" cy="319.38" r="2.29"/>
        <circle cx="211.61" cy="319.38" r="2.29"/>
        <circle cx="232.51" cy="319.38" r="2.29"/>
      </g>
      <g>
        <circle cx="13.24" cy="337.83" r="2.29"/>
        <circle cx="34.14" cy="337.83" r="2.29"/>
        <circle cx="55.05" cy="337.83" r="2.29"/>
        <circle cx="75.95" cy="337.83" r="2.29"/>
        <circle cx="96.85" cy="337.83" r="2.29"/>
        <circle cx="117.76" cy="337.83" r="2.29"/>
        <circle cx="138.66" cy="337.83" r="2.29"/>
        <circle cx="159.56" cy="337.83" r="2.29"/>
        <circle cx="180.46" cy="337.83" r="2.29"/>
        <circle cx="201.37" cy="337.83" r="2.29"/>
        <circle cx="222.27" cy="337.83" r="2.29"/>
      </g>
      <g>
        <circle cx="2.58" cy="356.29" r="2.29"/>
        <circle cx="23.49" cy="356.29" r="2.29"/>
        <circle cx="44.39" cy="356.29" r="2.29"/>
        <circle cx="65.29" cy="356.29" r="2.29"/>
        <circle cx="86.19" cy="356.29" r="2.29"/>
        <circle cx="107.1" cy="356.29" r="2.29"/>
        <circle cx="128" cy="356.29" r="2.29"/>
        <circle cx="148.9" cy="356.29" r="2.29"/>
        <circle cx="169.81" cy="356.29" r="2.29"/>
        <circle cx="190.71" cy="356.29" r="2.29"/>
        <circle cx="211.61" cy="356.29" r="2.29"/>
        <circle cx="232.51" cy="356.29" r="2.29"/>
      </g>
      <g>
        <circle cx="13.24" cy="374.74" r="2.29"/>
        <circle cx="34.14" cy="374.74" r="2.29"/>
        <circle cx="55.05" cy="374.74" r="2.29"/>
        <circle cx="75.95" cy="374.74" r="2.29"/>
        <circle cx="96.85" cy="374.74" r="2.29"/>
        <circle cx="117.76" cy="374.74" r="2.29"/>
        <circle cx="138.66" cy="374.74" r="2.29"/>
        <circle cx="159.56" cy="374.74" r="2.29"/>
        <circle cx="180.46" cy="374.74" r="2.29"/>
        <circle cx="201.37" cy="374.74" r="2.29"/>
        <circle cx="222.27" cy="374.74" r="2.29"/>
      </g>
      <g>
        <circle cx="2.58" cy="393.2" r="2.29"/>
        <circle cx="23.49" cy="393.2" r="2.29"/>
        <circle cx="44.39" cy="393.2" r="2.29"/>
        <circle cx="65.29" cy="393.2" r="2.29"/>
        <circle cx="86.19" cy="393.2" r="2.29"/>
        <circle cx="107.1" cy="393.2" r="2.29"/>
        <circle cx="128" cy="393.2" r="2.29"/>
        <circle cx="148.9" cy="393.2" r="2.29"/>
        <circle cx="169.81" cy="393.2" r="2.29"/>
        <circle cx="190.71" cy="393.2" r="2.29"/>
        <circle cx="211.61" cy="393.2" r="2.29"/>
        <circle cx="232.51" cy="393.2" r="2.29"/>
      </g>
    </g>
    <g>
      <g>
        <circle cx="483.33" cy="393.17" r="2.29"/>
        <circle cx="504.23" cy="393.17" r="2.29"/>
        <circle cx="525.14" cy="393.17" r="2.29"/>
        <circle cx="546.04" cy="393.17" r="2.29"/>
        <circle cx="566.94" cy="393.17" r="2.29"/>
      </g>
      <g>
        <circle cx="493.99" cy="411.63" r="2.29"/>
        <circle cx="514.89" cy="411.63" r="2.29"/>
        <circle cx="535.79" cy="411.63" r="2.29"/>
        <circle cx="556.7" cy="411.63" r="2.29"/>
        <circle cx="577.6" cy="411.63" r="2.29"/>
      </g>
      <g>
        <circle cx="483.33" cy="430.08" r="2.29"/>
        <circle cx="504.23" cy="430.08" r="2.29"/>
        <circle cx="525.14" cy="430.08" r="2.29"/>
        <circle cx="546.04" cy="430.08" r="2.29"/>
        <circle cx="566.94" cy="430.08" r="2.29"/>
      </g>
    </g>
    <g>
      <g>
        <circle cx="232.5" cy="393.17" r="2.29"/>
        <circle cx="253.41" cy="393.17" r="2.29"/>
        <circle cx="274.31" cy="393.17" r="2.29"/>
        <circle cx="295.21" cy="393.17" r="2.29"/>
        <circle cx="316.11" cy="393.17" r="2.29"/>
        <circle cx="337.02" cy="393.17" r="2.29"/>
        <circle cx="357.92" cy="393.17" r="2.29"/>
        <circle cx="378.82" cy="393.17" r="2.29"/>
        <circle cx="399.73" cy="393.17" r="2.29"/>
        <circle cx="420.63" cy="393.17" r="2.29"/>
        <circle cx="441.53" cy="393.17" r="2.29"/>
        <circle cx="462.43" cy="393.17" r="2.29"/>
        <circle cx="483.34" cy="393.17" r="2.29"/>
      </g>
      <g>
        <circle cx="243.16" cy="411.63" r="2.29"/>
        <circle cx="264.06" cy="411.63" r="2.29"/>
        <circle cx="284.97" cy="411.63" r="2.29"/>
        <circle cx="305.87" cy="411.63" r="2.29"/>
        <circle cx="326.77" cy="411.63" r="2.29"/>
        <circle cx="347.68" cy="411.63" r="2.29"/>
        <circle cx="368.58" cy="411.63" r="2.29"/>
        <circle cx="389.48" cy="411.63" r="2.29"/>
        <circle cx="410.38" cy="411.63" r="2.29"/>
        <circle cx="431.29" cy="411.63" r="2.29"/>
        <circle cx="452.19" cy="411.63" r="2.29"/>
        <circle cx="473.09" cy="411.63" r="2.29"/>
      </g>
      <g>
        <circle cx="232.5" cy="430.08" r="2.29"/>
        <circle cx="253.41" cy="430.08" r="2.29"/>
        <circle cx="274.31" cy="430.08" r="2.29"/>
        <circle cx="295.21" cy="430.08" r="2.29"/>
        <circle cx="316.11" cy="430.08" r="2.29"/>
        <circle cx="337.02" cy="430.08" r="2.29"/>
        <circle cx="357.92" cy="430.08" r="2.29"/>
        <circle cx="378.82" cy="430.08" r="2.29"/>
        <circle cx="399.73" cy="430.08" r="2.29"/>
        <circle cx="420.63" cy="430.08" r="2.29"/>
        <circle cx="441.53" cy="430.08" r="2.29"/>
        <circle cx="462.43" cy="430.08" r="2.29"/>
        <circle cx="483.34" cy="430.08" r="2.29"/>
      </g>
    </g>
    <g>
      <g>
        <circle cx="2.58" cy="393.2" r="2.29"/>
        <circle cx="23.49" cy="393.2" r="2.29"/>
        <circle cx="44.39" cy="393.2" r="2.29"/>
        <circle cx="65.29" cy="393.2" r="2.29"/>
        <circle cx="86.19" cy="393.2" r="2.29"/>
        <circle cx="107.1" cy="393.2" r="2.29"/>
        <circle cx="128" cy="393.2" r="2.29"/>
        <circle cx="148.9" cy="393.2" r="2.29"/>
        <circle cx="169.81" cy="393.2" r="2.29"/>
        <circle cx="190.71" cy="393.2" r="2.29"/>
        <circle cx="211.61" cy="393.2" r="2.29"/>
        <circle cx="232.51" cy="393.2" r="2.29"/>
      </g>
      <g>
        <circle cx="13.24" cy="411.66" r="2.29"/>
        <circle cx="34.14" cy="411.66" r="2.29"/>
        <circle cx="55.05" cy="411.66" r="2.29"/>
        <circle cx="75.95" cy="411.66" r="2.29"/>
        <circle cx="96.85" cy="411.66" r="2.29"/>
        <circle cx="117.76" cy="411.66" r="2.29"/>
        <circle cx="138.66" cy="411.66" r="2.29"/>
        <circle cx="159.56" cy="411.66" r="2.29"/>
        <circle cx="180.46" cy="411.66" r="2.29"/>
        <circle cx="201.37" cy="411.66" r="2.29"/>
        <circle cx="222.27" cy="411.66" r="2.29"/>
      </g>
      <g>
        <circle cx="2.58" cy="430.11" r="2.29"/>
        <circle cx="23.49" cy="430.11" r="2.29"/>
        <circle cx="44.39" cy="430.11" r="2.29"/>
        <circle cx="65.29" cy="430.11" r="2.29"/>
        <circle cx="86.19" cy="430.11" r="2.29"/>
        <circle cx="107.1" cy="430.11" r="2.29"/>
        <circle cx="128" cy="430.11" r="2.29"/>
        <circle cx="148.9" cy="430.11" r="2.29"/>
        <circle cx="169.81" cy="430.11" r="2.29"/>
        <circle cx="190.71" cy="430.11" r="2.29"/>
        <circle cx="211.61" cy="430.11" r="2.29"/>
        <circle cx="232.51" cy="430.11" r="2.29"/>
      </g>
    </g>
  </g>
  <path class="cls-1" d="M79,91a5,5,0,0,1,5-5H477a5,5,0,0,1,5,5V311H79Z"/>
  <circle class="cls-2" cx="286.45" cy="206.01" r="84.32"/>
  <circle class="cls-6" cx="273.79" cy="193.35" r="84.32"/>
  <path class="cls-7" d="M325.39,187.62c0-6.46-5.26-9.85-12.37-9.85H292.29a57.48,57.48,0,0,0,2.17-15.39c0-17.85-4.95-21.55-9.28-21.55a14.34,14.34,0,0,0-7.73,1.85,3.57,3.57,0,0,0-1.55,2.15l-3.09,16.62c-3.4,8.62-11.76,16.32-18.56,21.55v44a19.3,19.3,0,0,1,8,2.77,26.39,26.39,0,0,0,10.52,3.39h29.39A10.56,10.56,0,0,0,313,223.94a4.52,4.52,0,0,0-.31-2.15,9.55,9.55,0,0,0,6.5-8.62,12.71,12.71,0,0,0-.93-4.93,9.23,9.23,0,0,0,4.64-7.39,10.72,10.72,0,0,0-1.86-5.23,10.52,10.52,0,0,0,4.33-8Z"/>
  <path class="cls-8" d="M248,233.18H229.49A6.17,6.17,0,0,1,223.3,227v-43.1a6.17,6.17,0,0,1,6.19-6.16H248a6.17,6.17,0,0,1,6.19,6.16V227a6.17,6.17,0,0,1-6.19,6.16Z"/>
</svg>
