<svg id="Layer_1" data-name="Layer 1" xmlns="http://www.w3.org/2000/svg" viewBox="0 0 192.38 192.38">
  <defs>
    <style>
      .cls-1, .cls-2, .cls-3, .cls-4 {
        stroke: #000;
        stroke-width: 6px;
      }

      .cls-2 {
        fill: #75be8a;
        transition-duration: 300ms;
      }
      .cls-2:hover {
        fill: #42f5b6;
      }

      .cls-3 {
        fill: #ffe8e8;
      }

      .cls-3, .cls-4 {
        stroke-miterlimit: 10;
      }

      .cls-4 {
        fill: #e8505b;
      }
    </style>
  </defs>
  <title>I</title>
  <circle class="cls-1" cx="102.36" cy="103.14" r="84.32"/>
  <circle class="cls-2" cx="89.71" cy="90.49" r="84.32"/>
  <path class="cls-3" d="M141.3,84.75c0-6.46-5.26-9.85-12.37-9.85H108.2a57.48,57.48,0,0,0,2.17-15.39c0-17.85-4.95-21.55-9.28-21.55a14.34,14.34,0,0,0-7.73,1.85A3.57,3.57,0,0,0,91.81,42L88.71,58.59C85.31,67.21,77,74.9,70.15,80.14v44a19.3,19.3,0,0,1,8,2.77,26.39,26.39,0,0,0,10.52,3.39H118.1a10.56,10.56,0,0,0,10.83-9.24,4.52,4.52,0,0,0-.31-2.15,9.55,9.55,0,0,0,6.5-8.62,12.71,12.71,0,0,0-.93-4.93A9.23,9.23,0,0,0,138.83,98,10.72,10.72,0,0,0,137,92.76a10.52,10.52,0,0,0,4.33-8Z"/>
  <path class="cls-4" d="M64,130.32H45.4a6.17,6.17,0,0,1-6.19-6.16V81.06A6.17,6.17,0,0,1,45.4,74.9H64a6.17,6.17,0,0,1,6.19,6.16v43.1A6.17,6.17,0,0,1,64,130.32Z"/>
</svg>
