<svg id="Layer_1" data-name="Layer 1" xmlns="http://www.w3.org/2000/svg" viewBox="0 0 192.38 192.38">
  <defs>
    <style>
      .cls-1, .cls-2, .cls-3, .cls-4 {
        stroke: #000;
        stroke-width: 6px;
      }

      .cls-2 {
        fill: #75be8a;
      }

      .cls-3 {
        fill: #ffe8e8;
      }

      .cls-3, .cls-4 {
        stroke-miterlimit: 10;
      }

      .cls-4 {
        fill: #e8505b;
      }
    </style>
  </defs>
  <title>i</title>
  <circle class="cls-1" cx="102.36" cy="103.14" r="84.32"/>
  <circle class="cls-2" cx="101.19" cy="100.19" r="84.32"/>
  <path class="cls-3" d="M152.79,94.46c0-6.46-5.26-9.85-12.37-9.85H119.68a57.48,57.48,0,0,0,2.17-15.39c0-17.85-4.95-21.55-9.28-21.55a14.34,14.34,0,0,0-7.73,1.85,3.57,3.57,0,0,0-1.55,2.15L100.2,68.29c-3.4,8.62-11.76,16.32-18.56,21.55v44a19.3,19.3,0,0,1,8,2.77A26.39,26.39,0,0,0,100.2,140h29.39a10.56,10.56,0,0,0,10.83-9.24,4.52,4.52,0,0,0-.31-2.15,9.55,9.55,0,0,0,6.5-8.62,12.71,12.71,0,0,0-.93-4.93,9.23,9.23,0,0,0,4.64-7.39,10.72,10.72,0,0,0-1.86-5.23,10.52,10.52,0,0,0,4.33-8Z"/>
  <path class="cls-4" d="M75.45,140H56.89a6.17,6.17,0,0,1-6.19-6.16V90.77a6.17,6.17,0,0,1,6.19-6.16H75.45a6.17,6.17,0,0,1,6.19,6.16v43.1A6.17,6.17,0,0,1,75.45,140Z"/>
</svg>
