<svg id="Layer_1" data-name="Layer 1" xmlns="http://www.w3.org/2000/svg" xmlns:xlink="http://www.w3.org/1999/xlink" viewBox="0 0 520 1075">
  <defs>
    <style>
      .cls-1, .cls-17, .cls-34, .cls-37, .cls-4 {
        fill: none;
      }

      .cls-2 {
        fill: #c4c4c4;
      }

      .cls-3 {
        clip-path: url(#clip-path);
      }

      .cls-4, .cls-7 {
        stroke: #000;
        stroke-width: 6px;
      }

      .cls-5 {
        fill: #95ddeb;
      }

      .cls-6 {
        mask: url(#mask);
      }

      .cls-7 {
        fill: #0f0b0b;
      }

      .cls-8 {
        fill: #119eb9;
      }

      .cls-9 {
        fill: #c6c5b5;
      }

      .cls-10 {
        fill: #f4e9dd;
      }

      .cls-11 {
        fill: #e66229;
      }

      .cls-12 {
        fill: #7c2f2f;
        opacity: 0.47;
      }

      .cls-12, .cls-16 {
        isolation: isolate;
      }

      .cls-13 {
        fill: #29120c;
      }

      .cls-14 {
        fill: #231010;
      }

      .cls-15 {
        fill: #f4b694;
      }

      .cls-16, .cls-20 {
        fill: #c97b5c;
      }

      .cls-16 {
        opacity: 0.8;
      }

      .cls-17, .cls-37 {
        stroke: #0e0108;
      }

      .cls-17, .cls-34, .cls-37 {
        stroke-linecap: round;
        stroke-width: 2px;
      }

      .cls-17, .cls-34 {
        stroke-linejoin: round;
      }

      .cls-18 {
        fill: #2c1515;
      }

      .cls-19 {
        fill: #331315;
      }

      .cls-21 {
        fill: #0e0108;
      }

      .cls-22 {
        fill: #75be8a;
      }

      .cls-23 {
        mask: url(#mask-2);
      }

      .cls-24 {
        fill: #ffc4af;
      }

      .cls-25 {
        fill: #455a64;
      }

      .cls-26 {
        fill: #fff;
      }

      .cls-27 {
        fill: #263238;
      }

      .cls-28 {
        fill: #030303;
      }

      .cls-29 {
        fill: #df947f;
      }

      .cls-30 {
        fill: #ffe6e2;
      }

      .cls-31 {
        mask: url(#mask-3);
      }

      .cls-32 {
        fill: #ffb7a9;
      }

      .cls-33 {
        fill: #fd9177;
      }

      .cls-34 {
        stroke: #c97b5c;
      }

      .cls-35 {
        fill: #86bab7;
      }

      .cls-36 {
        fill: #fca44a;
      }

      .cls-37 {
        stroke-miterlimit: 10;
      }
    </style>
    <clipPath id="clip-path">
      <rect class="cls-1" width="520" height="1075"/>
    </clipPath>
    <mask id="mask" x="154.63" y="23.41" width="302.14" height="301.21" maskUnits="userSpaceOnUse">
      <g id="mask0_102_1457" data-name="mask0 102 1457">
        <rect class="cls-1" x="154.64" y="23.41" width="302" height="301"/>
      </g>
    </mask>
    <mask id="mask-2" x="10.56" y="377.41" width="359.21" height="530.4" maskUnits="userSpaceOnUse">
      <g id="mask1_102_1457" data-name="mask1 102 1457">
        <circle class="cls-2" cx="218.28" cy="528.91" r="151.49"/>
      </g>
    </mask>
    <mask id="mask-3" x="98.56" y="723.34" width="395.99" height="792.23" maskUnits="userSpaceOnUse">
      <g id="mask2_102_1457" data-name="mask2 102 1457">
        <circle class="cls-2" cx="306.28" cy="884.91" r="151.49"/>
      </g>
    </mask>
  </defs>
  <title>Tips_illustration2_exp</title>
  <g class="cls-3">
    <g>
      <path class="cls-4" d="M519.77,23C332.3,106.83,201.68,295,201.68,513.59s130.63,406.76,318.09,490.6"/>
      <path d="M288.91,341.41c-83.43,0-151.07-67.41-151.07-150.57S205.48,40.27,288.91,40.27,440,107.68,440,190.84,372.35,341.41,288.91,341.41Z"/>
      <path class="cls-5" d="M305.7,324.63c-83.43,0-151.07-67.41-151.07-150.57S222.26,23.49,305.7,23.49,456.77,90.9,456.77,174.06,389.13,324.63,305.7,324.63Z"/>
      <g class="cls-6">
        <path class="cls-7" d="M157.63,174.06c0,81.49,66.28,147.57,148.07,147.57s148.07-66.08,148.07-147.57S387.48,26.49,305.7,26.49,157.63,92.56,157.63,174.06Z"/>
      </g>
      <path class="cls-8" d="M348.78,239.18c5.55.36,26.58,2.25,43.78,16,14.72,11.78,16.74,20.8,17.62,25.53-6.85,5.31-47.33,41.12-111.53,38.92-55.94-1.92-88.37-32.51-96.61-38.92,2.27-10.8,5.63-16.29,15.16-24.31,17.83-14.86,40.41-16.86,46.14-17.24Z"/>
      <path class="cls-9" d="M338.16,234.45l10.67,4.6c-11.13,18.08-31.37,27.82-50.89,24.66-22.07-3.58-33.11-22-34.65-24.66l10-3.79Z"/>
      <path class="cls-10" d="M281,231.65l-7.61,3.61a66.45,66.45,0,0,0,22.79,16.11l9.43-8.23,9.14,8.21a54.7,54.7,0,0,0,23.43-16.91l-8-2.8Z"/>
      <path class="cls-11" d="M314.73,251.36l-9.17-8.23-9.43,8.23a24.33,24.33,0,0,0,5.16,1.47A25.63,25.63,0,0,0,314.73,251.36Z"/>
      <path class="cls-12" d="M348.71,153.16c-.07.4-.15.76-.22,1.06l0-.08C348.6,153.82,348.65,153.49,348.71,153.16Z"/>
      <path class="cls-13" d="M347.9,156.73a150.74,150.74,0,0,0,8.55-15c3-6.11,5.56-11.18,6.36-14.79,3.71-16.58-20.93-38.29-42.41-48.34-10.3-4.82-27-12.63-40.29-4.75-6,3.56-9.24,9.09-11,13a4.51,4.51,0,0,0-3.31-.88c-2.95.53-5.35,5.24-5.14,11.8-1.42-2.06-3.34-3-4.67-2.56s-1.66,2.11-1.85,2.91c-1,4.23,1.89,8.23,2.9,9.51-4.15,2.76-5.41,6.64-4.24,8.45,1,1.49,3.56,1.45,4.24,1.42a22.3,22.3,0,0,0-5.3,12.59c-.28,4.49,1.06,7.82,3.26,13.24a68.87,68.87,0,0,0,7.24,13.38Z"/>
      <path class="cls-14" d="M305.3,115.58a43.07,43.07,0,0,1-18.15-13.34,29.66,29.66,0,0,0,16.28,13.82Z"/>
      <path class="cls-15" d="M281,205.6v26.05a84.81,84.81,0,0,0,8.87,5.64c6.66,3.7,10,5.52,14.13,5.81,5.87.41,10.57-2.07,16.83-5.38a60.8,60.8,0,0,0,9.31-6.07V205.6Z"/>
      <path class="cls-16" d="M330.13,205.6a61.56,61.56,0,0,1-21.45,18.87c-8.54,4.53-17.24,2.81-27.69-6.84v-12Z"/>
      <path class="cls-15" d="M259.44,135.92c.4,4.59,1.06,10.57,2.25,17.59.53,3.26,1.2,6.74,2,10.41,4.1,19,6.36,28.87,14.31,38.3,3.68,4.35,12.69,15,26.24,15.58,17.1.73,28.9-15.14,31-18,6.49-8.72,8.48-19.46,12.46-40.94q.46-2.46.84-4.76c.06-.34.11-.67.17-1,.15-.9.29-1.77.42-2.64.73-4.65,1.25-8.63,1.62-11.71.11-2.93,0-11.73-6.23-18.49a22,22,0,0,0-4.51-3.7,49.88,49.88,0,0,1-21.2,2.38,49.2,49.2,0,0,1-13.52-3.43c-1.89.56-11.23,3.14-19.61-2.11a21.41,21.41,0,0,1-6.1-5.81,57.48,57.48,0,0,0-9,8.45A58.45,58.45,0,0,0,259.44,135.92Z"/>
      <path class="cls-17" d="M300.66,177.77s13.43,13.85,6.71-8.81"/>
      <path class="cls-15" d="M262.26,156.73c-1.18-.67-4.41-2.29-7.59-1.17-4.86,1.73-6.07,8.67-5.83,12.33.53,7.78,8.62,14.95,20.27,18Q265.68,171.3,262.26,156.73Z"/>
      <path class="cls-15" d="M347.9,156.73c1.18-.67,4.42-2.29,7.58-1.17,4.86,1.73,6.08,8.67,5.83,12.33-.53,7.78-8.62,14.95-20.27,18Z"/>
      <path class="cls-18" d="M322.48,162.78a4.82,4.82,0,1,1,4.37-4.8A4.6,4.6,0,0,1,322.48,162.78Z"/>
      <path class="cls-18" d="M288.46,162.78a4.82,4.82,0,1,1,4.37-4.8A4.6,4.6,0,0,1,288.46,162.78Z"/>
      <path class="cls-19" d="M324.51,172.11a16,16,0,1,0-11.33-4.68,16.08,16.08,0,0,0,11.33,4.68Zm0-29.85a13.91,13.91,0,1,1-9.83,4.07,14,14,0,0,1,9.83-4.07Z"/>
      <path class="cls-19" d="M286,172.11a16,16,0,1,0-11.33-4.68A16.07,16.07,0,0,0,286,172.11Zm0-29.85a13.91,13.91,0,1,1-9.83,4.07A14,14,0,0,1,286,142.26Z"/>
      <path class="cls-20" d="M314.07,195.24A1,1,0,0,1,315,197Zm-24-7.94a1,1,0,0,1,1.83-.79ZM315,197a18.58,18.58,0,0,1-13.26,1.59c-4.58-1.3-8.78-4.79-11.61-11.32l1.83-.79c2.63,6.07,6.41,9.08,10.32,10.19a16.58,16.58,0,0,0,11.82-1.45Z"/>
      <path class="cls-17" d="M346.82,171.37s2.5-11.4,9.23-8.86"/>
      <path class="cls-17" d="M263.73,171.37s-2.28-11.4-8.39-8.86"/>
      <path class="cls-21" d="M334.23,137.51a1,1,0,0,0,.57-.23,1.05,1.05,0,0,0,.21-1.47c-6.36-7.45-16.66-1.8-16.76-1.74a1,1,0,0,0-.3.25,1,1,0,0,0-.18.35,1,1,0,0,0,.09.76,1,1,0,0,0,.61.49,1,1,0,0,0,.77-.09c.37-.21,9-4.89,14.25,1.34a1.08,1.08,0,0,0,.75.35Z"/>
      <path class="cls-21" d="M277.24,137.51a1,1,0,0,1-.57-.23,1.06,1.06,0,0,1-.21-1.47c6.36-7.45,16.66-1.8,16.76-1.74a1,1,0,0,1,.3.25,1,1,0,0,1,.22.74,1,1,0,0,1-.12.37,1,1,0,0,1-1,.52,1,1,0,0,1-.38-.12c-.37-.21-9-4.89-14.25,1.34a1.08,1.08,0,0,1-.75.35Z"/>
      <path class="cls-19" d="M301,155.07h8.58v2.11H301Z"/>
      <path class="cls-19" d="M340.27,158.22l7.86-1.58c.13-.79.25-1.58.38-2.37l-8.72,1.92Z"/>
      <path class="cls-19" d="M271,158.77l-.77-2.61-8.48-1.79c.12.75.24,1.49.36,2.24Z"/>
      <path class="cls-4" d="M156.79,174.14c0,81.53,66.47,147.65,148.49,147.65s148.49-66.12,148.49-147.65S387.3,26.49,305.28,26.49,156.79,92.61,156.79,174.14Z"/>
      <path d="M201.07,697C117.64,697,50,629.61,50,546.45s67.64-150.57,151.07-150.57,151.07,67.41,151.07,150.57S284.51,697,201.07,697Z"/>
      <circle class="cls-22" cx="218.28" cy="528.91" r="151.49"/>
      <g class="cls-23">
        <g>
          <rect class="cls-1" x="10.56" y="379.09" width="359.21" height="266.05"/>
          <path class="cls-24" d="M207.15,560.36,268,563.65l5,22.92s-16.82,13.52-18.48,14.08-39.92,5.92-39.92,5.92-41.21-19.25-40.64-19.06S207.15,560.36,207.15,560.36Z"/>
          <path class="cls-25" d="M193,560.15c-2.41,0-28.09-3.44-43.8,6.92s-57.84,90.5-57.84,90.5-12.85,42.67,5.24,51.11,65.86,34.23,65.86,34.23l11.64-42.27-32.93-15.29V644.66Z"/>
          <path class="cls-26" d="M263.87,588.05s-23.2,13.44-40.81,9.52A69,69,0,0,1,193,581.32l-31.18,71.42,18.46,143.11,55.61,7.27,18.44-135.69Z"/>
          <path class="cls-25" d="M265.59,562.82,277.67,567,300,713s17.32,60.82,15.74,87.11S300.1,907.82,300.1,907.82L198.23,897l4.16-159.8s-7.34-46,14.43-73.86S265.59,562.82,265.59,562.82Z"/>
          <path class="cls-25" d="M207.15,559.65c-1.43,2.08-23.72,86.88-21.31,104.73s15.36,55.34,15.36,55.34V896.67l-89.94-8.33s-7.36-64.59,0-95.53,18.11-67.57,18.11-67.57l7.09-108,45.26-57.59Z"/>
          <path class="cls-27" d="M170.56,601a6,6,0,0,0-.69.67c-.42.46-1.08,1.23-1.79,2.08-1.56,1.75-3.87,4.17-6.84,7.19s-6.59,6.42-10.39,10.42a80.62,80.62,0,0,0-11.21,14.25,47.11,47.11,0,0,0-6,17.13c-.71,5.54-.94,10.54-1.14,14.75s-.23,7.58-.23,9.94v2.71a3.14,3.14,0,0,0,0,1,5.11,5.11,0,0,0,0-1c0-.73.1-1.61.17-2.69.15-2.5.33-5.85.56-9.94s.58-9.19,1.35-14.58a46.94,46.94,0,0,1,5.93-16.67,81.63,81.63,0,0,1,11-14.1c3.78-4,7.38-7.52,10.27-10.56s5.16-5.6,6.63-7.44l1.66-2.08a4.59,4.59,0,0,0,.69-1.06Z"/>
          <path class="cls-25" d="M277.67,567.07s33.64,14.38,44,37.17,31.64,95.15,32.14,108.53-24.22,55-24.22,55L290.54,743l7.4-18.34-11.85-78.79Z"/>
          <path class="cls-28" d="M276.78,457.9c-2.74-4.94-8.32-8.67-13.85-7.79a19.18,19.18,0,0,0-16.42-21.46c-5.41-.48-11.16,1.35-16.05-1-3.06-1.44-5.18-4.17-7.65-6.56-10.4-9.61-28.17-8.67-38.88.65S169.52,447,173,460.77c1.62,6.42,4.66,12.5,4.64,19.19,0,6.25-2.68,12.08-3.24,18.27s2.08,13.6,8.32,14.77l60.93,16.67a24.15,24.15,0,0,0,26.61-8.81c4-5.67,5.24-12.75,6.4-19.58A181.15,181.15,0,0,0,280,474.34a32.27,32.27,0,0,0-3.18-16.44Z"/>
          <path class="cls-28" d="M290.23,481.71a9.3,9.3,0,0,0-12-2.08c-10.66.15-20.27-.4-28.15,6.81A36.5,36.5,0,0,0,238,515a31,31,0,0,0,16.63,25.65,26.77,26.77,0,0,0,29.71-4.4,23.85,23.85,0,0,0,3.47-29.34,45.44,45.44,0,0,0,5-12.5,15.3,15.3,0,0,0-2.66-12.71Z"/>
          <path class="cls-24" d="M232.35,596.41a27.05,27.05,0,0,0,27-26.15L262,482.13c1.46-23.67-11.06-44.23-34.7-45h-2.18a42.33,42.33,0,0,0-41.21,40c-1.14,20.5-2.08,43.19-1.77,54.17C183,554,205.9,557,205.9,557s0,5.27-.15,11.94a26.9,26.9,0,0,0,26.65,27.48Z"/>
          <path class="cls-29" d="M205.9,557.26a54.72,54.72,0,0,0,29.33-9.46s-6.8,16.67-29.5,15.21Z"/>
          <path class="cls-27" d="M189.75,492.36a3.27,3.27,0,0,0,3.2,3.21,3.09,3.09,0,0,0,2.27-.82,3.11,3.11,0,0,0,1-2.2,3.25,3.25,0,0,0-3.18-3.21,3.14,3.14,0,0,0-3.28,3Z"/>
          <path class="cls-27" d="M222.41,492.36a3.23,3.23,0,0,0,3.2,3.19,3,3,0,0,0,1.22-.17,3.08,3.08,0,0,0,2-2.83,3.27,3.27,0,0,0-3.2-3.21,3.09,3.09,0,0,0-2.27.82,3.11,3.11,0,0,0-1,2.2Z"/>
          <path class="cls-27" d="M221.73,516.61c-.56,0-.48,3.77-3.66,6.54s-7.21,2.44-7.24,3,.94.71,2.62.71a9.41,9.41,0,0,0,6.05-2.27,8.34,8.34,0,0,0,2.83-5.48C222.43,517.51,222,516.57,221.73,516.61Z"/>
          <path class="cls-24" d="M260.64,499.23c.39-.17,15.49-5,15.36,10.56s-15.7,12.23-15.72,11.77S260.64,499.23,260.64,499.23Z"/>
          <path class="cls-17" d="M259,511.7s3.42-8.29,12.59-6.45"/>
          <path class="cls-29" d="M223.54,500.69a4.2,4.2,0,0,0,1.54,1.33,8.66,8.66,0,0,0,4.84,1,8.31,8.31,0,0,0,4.57-1.9c1-.81,1.37-1.52,1.27-1.6a14.55,14.55,0,0,1-5.93,2.5A14.85,14.85,0,0,1,223.54,500.69Z"/>
          <path class="cls-29" d="M221.93,499.92c-.1.25,1.54,1.1,3.78,1.1s3.89-.85,3.78-1.08-1.75,0-3.78,0S222,499.65,221.93,499.92Z"/>
          <path class="cls-29" d="M188.23,497.75a12.45,12.45,0,0,0,11.33,1.06c0-.27-2.6.15-5.7-.17S188.34,497.48,188.23,497.75Z"/>
          <path class="cls-29" d="M189.92,499a8.74,8.74,0,0,0,10.39,1.85,46.82,46.82,0,0,1-5.36-.15,47.34,47.34,0,0,1-5-1.71Z"/>
          <path class="cls-28" d="M176.3,459.23a27,27,0,0,0,41.35-1.81,17.63,17.63,0,0,0,29.58,1.6,48,48,0,0,0,2.56,32.71,14.59,14.59,0,0,0,3.95,5.65c1.83,1.44,6.4,2.6,8.48,1.56s1-3.62,1.75-5.65A45.74,45.74,0,0,0,179.38,459"/>
          <path class="cls-21" d="M240.28,481.86a1,1,0,0,0,.59-.18,1.05,1.05,0,0,0,.33-1.44c-5.69-8-16.44-3.24-16.55-3.19a1,1,0,0,0-.32.22,1,1,0,0,0-.21.33,1,1,0,0,0,0,.77,1,1,0,0,0,.23.33,1,1,0,0,0,1.11.19c.39-.18,9.37-4.09,14.08,2.57a1.09,1.09,0,0,0,.32.28A1.08,1.08,0,0,0,240.28,481.86Z"/>
          <path class="cls-21" d="M203,480.08a1,1,0,0,0,.54-.31,1.06,1.06,0,0,0,0-1.48c-7.34-6.49-16.75.54-16.84.61a1,1,0,0,0-.27.29,1,1,0,0,0,.06,1.11,1,1,0,0,0,.29.27,1,1,0,0,0,1.13-.07c.34-.26,8.21-6.09,14.3-.66a1.08,1.08,0,0,0,.79.24Z"/>
          <path class="cls-17" d="M213.73,507.24s-5.17-3.06-10.59,2.5"/>
        </g>
      </g>
      <circle class="cls-4" cx="218.28" cy="528.91" r="148.49"/>
      <path d="M289.08,1051.34c-83.43,0-151.07-67.41-151.07-150.57S205.64,750.2,289.08,750.2s151.07,67.41,151.07,150.57S372.51,1051.34,289.08,1051.34Z"/>
      <circle class="cls-30" cx="306.28" cy="884.91" r="151.49"/>
      <g class="cls-31">
        <g>
          <rect class="cls-1" x="98.56" y="723.34" width="359.21" height="266.05"/>
          <path class="cls-21" d="M242.19,948.41c3.42-18.76,7.46-37.62,6.61-56.8s-6.18-38.32-5.56-57.77c.51-16.93,5.84-33.84,19.25-45a52,52,0,0,1,44.32-11.12,53.66,53.66,0,0,1,35.74,27.77,96.44,96.44,0,0,1,7.93,26.92,125,125,0,0,0,4.61,14.82A77.65,77.65,0,0,0,368,869.32,72.26,72.26,0,0,0,385.82,884c13.18,8,27.79,13.23,40.79,21.49A70.48,70.48,0,0,1,444,920.59a73.83,73.83,0,0,1,12.15,22.65,112.94,112.94,0,0,1,5.15,48,123.78,123.78,0,0,1-13.67,45,112.71,112.71,0,0,1-30.11,36A116.66,116.66,0,0,1,328.07,1095a104.63,104.63,0,0,1-42.49-17.17,113.94,113.94,0,0,1-31.29-32.27,106.17,106.17,0,0,1-15.65-42.1C236.09,985.08,238.85,966.55,242.19,948.41Z"/>
          <path class="cls-32" d="M305.75,915.36a18.81,18.81,0,0,0,18.76-18.76v-38a18.81,18.81,0,0,0-18.76-18.76h0A18.81,18.81,0,0,0,287,858.64v38a18.81,18.81,0,0,0,18.76,18.76Z"/>
          <path class="cls-33" d="M304.24,839.88h3.19A17.22,17.22,0,0,1,324.59,857v13.46c-11.89,10.11-28.51,16-37.52,15.16V857a17.21,17.21,0,0,1,17.16-17.16Z"/>
          <path class="cls-32" d="M257.42,818.16a38.6,38.6,0,0,1,2.14-12.51,1.55,1.55,0,0,1,0-.36h0A39,39,0,0,1,335,813.63h0c2.29,8.29-3.68,27.41-7.36,37.8a26.9,26.9,0,0,1-8.52,12c-13.23,10.68-45.09,27.92-56.41,11.91C252.71,861,255,835.69,257.42,818.16Z"/>
          <path class="cls-17" d="M269.37,848.53s4.32,4.17,10.89,0"/>
          <path class="cls-21" d="M310,830.08a1,1,0,0,0,.59-.18,1.06,1.06,0,0,0,.33-1.44c-5.69-8-16.45-3.24-16.55-3.19a1,1,0,0,0-.32.22,1,1,0,0,0-.28.71,1,1,0,0,0,.09.38,1,1,0,0,0,.23.33,1,1,0,0,0,.33.21,1,1,0,0,0,.39.07,1,1,0,0,0,.39-.09c.39-.18,9.37-4.09,14.08,2.57a1.08,1.08,0,0,0,.72.41Z"/>
          <path class="cls-21" d="M256.45,825.88l.23-2a18.84,18.84,0,0,1,8,1.39,1,1,0,0,1,.32.22,1,1,0,0,1,.19,1.09,1,1,0,0,1-.23.33,1,1,0,0,1-1.11.19,16.67,16.67,0,0,0-7.41-1.21Z"/>
          <path class="cls-34" d="M268.64,862.81a23.85,23.85,0,0,0,24.11-.9"/>
          <path class="cls-21" d="M274.87,803.34c-14.18,1.05-17.4,14.75-17.4,14.75a38.6,38.6,0,0,1,2.14-12.51,1.55,1.55,0,0,1,0-.36,39,39,0,0,1,75.48,8.34h0c1.26,4.58,0,12.53-2,20.59h-8.6C311.62,804,280.15,803,280.15,803l15.31-18.3S280.25,803,274.87,803.34Z"/>
          <path class="cls-32" d="M346.93,842.51a15.08,15.08,0,1,0-4.42,10.66A15.08,15.08,0,0,0,346.93,842.51Z"/>
          <path class="cls-17" d="M325,843.9s4.84-12.27,17.83-9.55"/>
          <path class="cls-26" d="M218.82,1143.55c1.62-19.12,47.25-243.6,47.25-243.6h71.34s36.18,222,38.6,239.54l66.52,376.08h-269Z"/>
          <path class="cls-35" d="M314.07,964.23a5.87,5.87,0,1,0-1.72,4.15A5.87,5.87,0,0,0,314.07,964.23Z"/>
          <path class="cls-35" d="M297.34,1040.56a5.87,5.87,0,1,0-1.72,4.15A5.88,5.88,0,0,0,297.34,1040.56Z"/>
          <path class="cls-36" d="M326.11,900.08a5.09,5.09,0,0,1-.31-.57,147.33,147.33,0,0,1,19.94.21,14.68,14.68,0,0,1,3.14.23h.33a106.56,106.56,0,0,1,15.05,2.57,82.93,82.93,0,0,1,31.55,16c17.11,13.84,28.18,33.69,36.41,53.73,4.25,10.29,7.72,21,11.07,31.73q6.43,21,12.33,42.13,12,42.72,22,86c6.2,26.74,11.84,36.47,16.91,63.46l-33.84,6.87c-6-18.71-34.38-95.83-42.59-121-7.28-22.21-14.28-44.57-22.62-66.42q-2.78-7.39-5.87-14.67a632.39,632.39,0,0,0-.28,71s18,82.74,21.57,99.85a16,16,0,0,1-15.67,19.25H355.37l-30.88-290.8A9.45,9.45,0,0,0,326.11,900.08Z"/>
          <path class="cls-36" d="M325.8,899.51Z"/>
          <path class="cls-36" d="M285.81,900.08a6.33,6.33,0,0,1,.31-.57,147.88,147.88,0,0,0-20,.21,14.26,14.26,0,0,0-3.11.23h-.33a105.4,105.4,0,0,0-15.06,2.57,83.23,83.23,0,0,0-31.63,16c-17.09,13.85-28.18,33.69-36.39,53.73-4.25,10.29-7.72,21-11.09,31.73q-6.43,21-12.33,42.13-12,42.72-22,86c-6.2,26.74-11.81,36.47-16.88,63.46l33.82,6.87c6-18.71,34.41-95.83,42.59-121,7.28-22.11,14.23-44.57,22.62-66.32q2.8-7.38,5.89-14.67a633,633,0,0,1,.26,71.06s-18,82.73-21.54,99.85a16,16,0,0,0,15.65,19.25h39.86l30.88-290.81a10.07,10.07,0,0,1-1.55.23Z"/>
          <path class="cls-37" d="M307.89,837.39a26.06,26.06,0,0,1-13,0"/>
          <path class="cls-37" d="M270.27,837.39a26.08,26.08,0,0,1-13,0"/>
        </g>
      </g>
      <circle class="cls-4" cx="306.28" cy="884.91" r="148.49"/>
    </g>
  </g>
</svg>
