<svg id="Layer_1" data-name="Layer 1" xmlns="http://www.w3.org/2000/svg" xmlns:xlink="http://www.w3.org/1999/xlink" viewBox="0 0 1075 520">
  <defs>
    <style>
      .cls-1, .cls-17, .cls-34, .cls-37, .cls-4 {
        fill: none;
      }

      .cls-2 {
        fill: #c4c4c4;
      }

      .cls-3 {
        clip-path: url(#clip-path);
      }

      .cls-4, .cls-7 {
        stroke: #000;
        stroke-width: 6px;
      }

      .cls-5 {
        fill: #95ddeb;
      }

      .cls-6 {
        mask: url(#mask);
      }

      .cls-7 {
        fill: #0f0b0b;
      }

      .cls-8 {
        fill: #119eb9;
      }

      .cls-9 {
        fill: #c6c5b5;
      }

      .cls-10 {
        fill: #f4e9dd;
      }

      .cls-11 {
        fill: #e66229;
      }

      .cls-12 {
        fill: #7c2f2f;
        opacity: 0.47;
      }

      .cls-12, .cls-16 {
        isolation: isolate;
      }

      .cls-13 {
        fill: #29120c;
      }

      .cls-14 {
        fill: #231010;
      }

      .cls-15 {
        fill: #f4b694;
      }

      .cls-16, .cls-20 {
        fill: #c97b5c;
      }

      .cls-16 {
        opacity: 0.8;
      }

      .cls-17, .cls-37 {
        stroke: #0e0108;
      }

      .cls-17, .cls-34, .cls-37 {
        stroke-linecap: round;
        stroke-width: 2px;
      }

      .cls-17, .cls-34 {
        stroke-linejoin: round;
      }

      .cls-18 {
        fill: #2c1515;
      }

      .cls-19 {
        fill: #331315;
      }

      .cls-21 {
        fill: #0e0108;
      }

      .cls-22 {
        fill: #75be8a;
      }

      .cls-23 {
        mask: url(#mask-2);
      }

      .cls-24 {
        fill: #ffc4af;
      }

      .cls-25 {
        fill: #455a64;
      }

      .cls-26 {
        fill: #fff;
      }

      .cls-27 {
        fill: #263238;
      }

      .cls-28 {
        fill: #030303;
      }

      .cls-29 {
        fill: #df947f;
      }

      .cls-30 {
        fill: #ffe6e2;
      }

      .cls-31 {
        mask: url(#mask-3);
      }

      .cls-32 {
        fill: #ffb7a9;
      }

      .cls-33 {
        fill: #fd9177;
      }

      .cls-34 {
        stroke: #c97b5c;
      }

      .cls-35 {
        fill: #86bab7;
      }

      .cls-36 {
        fill: #fca44a;
      }

      .cls-37 {
        stroke-miterlimit: 10;
      }
    </style>
    <clipPath id="clip-path">
      <rect class="cls-1" width="1075" height="520"/>
    </clipPath>
    <mask id="mask" x="748.91" y="138.3" width="302.14" height="301.22" maskUnits="userSpaceOnUse">
      <g id="mask0_102_2147" data-name="mask0 102 2147">
        <rect class="cls-1" x="748.92" y="138.3" width="302" height="301"/>
      </g>
    </mask>
    <mask id="mask-2" x="337.45" y="50.08" width="359.21" height="530.4" maskUnits="userSpaceOnUse">
      <g id="mask1_102_2147" data-name="mask1 102 2147">
        <circle class="cls-2" cx="545.17" cy="201.57" r="151.49"/>
      </g>
    </mask>
    <mask id="mask-3" x="-17.71" y="128.85" width="395.99" height="792.23" maskUnits="userSpaceOnUse">
      <g id="mask2_102_2147" data-name="mask2 102 2147">
        <circle class="cls-2" cx="190.01" cy="290.41" r="151.49"/>
      </g>
    </mask>
  </defs>
  <title>Tips_illustration2_mobile_exp</title>
  <g class="cls-3">
    <g>
      <path class="cls-4" d="M1051,519.77C967.16,332.3,779,201.68,560.4,201.68S153.64,332.3,69.81,519.77"/>
      <path d="M883.19,456.3c-83.43,0-151.07-67.41-151.07-150.57s67.64-150.57,151.07-150.57,151.07,67.41,151.07,150.57S966.63,456.3,883.19,456.3Z"/>
      <path class="cls-5" d="M900,439.52c-83.43,0-151.07-67.41-151.07-150.57S816.54,138.38,900,138.38s151.07,67.41,151.07,150.57S983.41,439.52,900,439.52Z"/>
      <g class="cls-6">
        <path class="cls-7" d="M751.91,288.95c0,81.49,66.28,147.57,148.07,147.57s148.07-66.08,148.07-147.57S981.76,141.37,900,141.38,751.91,207.45,751.91,288.95Z"/>
      </g>
      <path class="cls-8" d="M943.06,354.07c5.55.36,26.58,2.25,43.78,16,14.73,11.78,16.75,20.8,17.63,25.53-6.85,5.31-47.34,41.12-111.53,38.92C837,432.61,804.57,402,796.33,395.62c2.27-10.8,5.63-16.29,15.16-24.31,17.83-14.86,40.41-16.86,46.14-17.24Z"/>
      <path class="cls-9" d="M932.44,349.34l10.67,4.6C932,372,911.74,381.76,892.22,378.6c-22.07-3.58-33.11-22-34.65-24.66l10-3.79Z"/>
      <path class="cls-10" d="M875.26,346.54l-7.61,3.61a66.44,66.44,0,0,0,22.79,16.11l9.43-8.23,9.14,8.22a54.71,54.71,0,0,0,23.43-16.91l-8-2.8Z"/>
      <path class="cls-11" d="M909,366.25,899.85,358l-9.43,8.23a24.36,24.36,0,0,0,5.16,1.47A25.64,25.64,0,0,0,909,366.25Z"/>
      <path class="cls-12" d="M943,268.05c-.07.4-.15.76-.22,1.06l0-.08C942.88,268.71,942.93,268.38,943,268.05Z"/>
      <path class="cls-13" d="M942.18,271.62a150.74,150.74,0,0,0,8.54-15c3-6.11,5.56-11.18,6.36-14.79,3.71-16.58-20.93-38.29-42.41-48.34-10.3-4.82-27-12.63-40.28-4.75-6,3.55-9.24,9.09-11,13a4.51,4.51,0,0,0-3.31-.88c-2.95.53-5.35,5.24-5.14,11.8-1.42-2.06-3.33-3-4.66-2.56s-1.66,2.11-1.85,2.9c-1,4.23,1.89,8.23,2.9,9.51-4.15,2.76-5.41,6.64-4.24,8.45,1,1.49,3.56,1.45,4.24,1.42A22.3,22.3,0,0,0,846,245c-.28,4.49,1.06,7.82,3.26,13.24a68.87,68.87,0,0,0,7.24,13.38Z"/>
      <path class="cls-14" d="M899.57,230.47a43.08,43.08,0,0,1-18.15-13.34A29.66,29.66,0,0,0,897.71,231Z"/>
      <path class="cls-15" d="M875.26,320.49v26.05a84.82,84.82,0,0,0,8.87,5.64c6.66,3.7,10,5.52,14.13,5.81,5.87.41,10.57-2.07,16.83-5.38a60.83,60.83,0,0,0,9.31-6.07V320.49Z"/>
      <path class="cls-16" d="M924.4,320.49A61.57,61.57,0,0,1,903,339.36c-8.54,4.52-17.24,2.81-27.69-6.84v-12Z"/>
      <path class="cls-15" d="M853.72,250.81c.4,4.59,1.06,10.57,2.25,17.59.53,3.26,1.2,6.74,2,10.41,4.1,19,6.36,28.87,14.31,38.3,3.68,4.35,12.69,15,26.24,15.58,17.1.73,28.9-15.14,31-18C936,306,938,295.28,942,273.79q.46-2.46.84-4.76c.06-.34.11-.67.17-1,.15-.9.29-1.77.42-2.64.73-4.65,1.25-8.63,1.62-11.71.11-2.93,0-11.73-6.23-18.49a22,22,0,0,0-4.51-3.7,49.88,49.88,0,0,1-21.2,2.38,49.17,49.17,0,0,1-13.52-3.43c-1.89.57-11.23,3.14-19.61-2.11a21.38,21.38,0,0,1-6.09-5.81,57.5,57.5,0,0,0-9,8.45A58.43,58.43,0,0,0,853.72,250.81Z"/>
      <path class="cls-17" d="M894.94,292.66s13.43,13.85,6.71-8.81"/>
      <path class="cls-15" d="M856.54,271.62c-1.18-.67-4.41-2.29-7.59-1.17-4.86,1.73-6.07,8.67-5.83,12.33.53,7.78,8.62,14.95,20.28,18Q860,286.19,856.54,271.62Z"/>
      <path class="cls-15" d="M942.18,271.62c1.18-.67,4.42-2.29,7.59-1.17,4.86,1.73,6.07,8.67,5.83,12.33-.53,7.78-8.62,14.95-20.27,18Z"/>
      <path class="cls-18" d="M916.76,277.67a4.82,4.82,0,1,1,4.37-4.8A4.6,4.6,0,0,1,916.76,277.67Z"/>
      <path class="cls-18" d="M882.74,277.67a4.82,4.82,0,1,1,4.37-4.8A4.6,4.6,0,0,1,882.74,277.67Z"/>
      <path class="cls-19" d="M918.79,287a16,16,0,1,0-11.33-4.69A16.07,16.07,0,0,0,918.79,287Zm0-29.85a13.91,13.91,0,1,1-9.83,4.07,13.95,13.95,0,0,1,9.83-4.07Z"/>
      <path class="cls-19" d="M880.26,287a16,16,0,1,0-11.33-4.69A16.07,16.07,0,0,0,880.26,287Zm0-29.85a13.91,13.91,0,1,1-9.83,4.07A14,14,0,0,1,880.26,257.15Z"/>
      <path class="cls-20" d="M908.34,310.13a1,1,0,0,1,.89,1.79Zm-24-7.94a1,1,0,0,1,1.84-.8Zm24.86,9.73A18.58,18.58,0,0,1,896,313.5c-4.58-1.3-8.78-4.79-11.61-11.32l1.84-.8c2.63,6.07,6.4,9.08,10.32,10.19a16.58,16.58,0,0,0,11.82-1.45Z"/>
      <path class="cls-17" d="M941.1,286.26s2.5-11.4,9.23-8.86"/>
      <path class="cls-17" d="M858,286.26s-2.28-11.4-8.39-8.86"/>
      <path class="cls-21" d="M928.51,252.4a1,1,0,0,0,.57-.23,1.05,1.05,0,0,0,.21-1.47c-6.36-7.45-16.66-1.8-16.76-1.74a1,1,0,0,0-.3.25,1,1,0,0,0-.22.74,1.06,1.06,0,0,0,.38.68,1,1,0,0,0,1.13.09c.37-.21,9-4.89,14.25,1.34a1.05,1.05,0,0,0,.34.25A1.08,1.08,0,0,0,928.51,252.4Z"/>
      <path class="cls-21" d="M871.52,252.4a1,1,0,0,1-.57-.23,1.05,1.05,0,0,1-.21-1.47c6.36-7.45,16.66-1.8,16.76-1.74a1,1,0,0,1,.49.59,1,1,0,0,1,0,.39,1,1,0,0,1-.12.37,1,1,0,0,1-.25.3,1,1,0,0,1-.75.21,1,1,0,0,1-.38-.12c-.37-.21-9-4.89-14.25,1.34a1.07,1.07,0,0,1-.34.25A1.08,1.08,0,0,1,871.52,252.4Z"/>
      <path class="cls-19" d="M895.24,270h8.58v2.11h-8.58Z"/>
      <path class="cls-19" d="M934.54,273.11l7.86-1.58c.13-.79.25-1.59.38-2.37l-8.72,1.92Z"/>
      <path class="cls-19" d="M865.25,273.66l-.77-2.61L856,269.26c.12.75.24,1.5.35,2.24Z"/>
      <path class="cls-4" d="M751.07,289c0,81.53,66.47,147.65,148.49,147.65S1048.05,370.56,1048.05,289,981.58,141.37,899.56,141.38,751.07,207.5,751.07,289Z"/>
      <path d="M528,369.69c-83.43,0-151.07-67.41-151.07-150.57S444.53,68.54,528,68.54,679,136,679,219.12,611.4,369.69,528,369.69Z"/>
      <circle class="cls-22" cx="545.17" cy="201.57" r="151.49"/>
      <g class="cls-23">
        <g>
          <rect class="cls-1" x="337.45" y="51.76" width="359.21" height="266.05"/>
          <path class="cls-24" d="M534,233l60.83,3.29,5,22.92S583,272.76,581.38,273.32s-39.92,5.92-39.92,5.92S500.26,260,500.82,260.18,534,233,534,233Z"/>
          <path class="cls-25" d="M519.89,232.82c-2.41,0-28.09-3.44-43.8,6.92s-57.84,90.51-57.84,90.51-12.85,42.67,5.24,51.11,65.86,34.23,65.86,34.23L501,373.31,468.06,358V317.32Z"/>
          <path class="cls-26" d="M590.76,260.72s-23.2,13.44-40.81,9.52A69,69,0,0,1,519.89,254L488.7,325.41l18.46,143.11,55.61,7.27L581.22,340.1Z"/>
          <path class="cls-25" d="M592.48,235.49l12.08,4.17L626.91,385.7s17.32,60.82,15.74,87.11S627,580.48,627,580.48L525.13,569.71l4.16-159.8s-7.34-46,14.43-73.86S592.48,235.49,592.48,235.49Z"/>
          <path class="cls-25" d="M534,232.32c-1.44,2.08-23.72,86.88-21.31,104.74s15.36,55.34,15.36,55.34V569.34L438.16,561s-7.36-64.59,0-95.53,18.11-67.57,18.11-67.57l7.09-108,45.26-57.59Z"/>
          <path class="cls-27" d="M497.45,273.64a6,6,0,0,0-.69.67c-.42.46-1.08,1.23-1.79,2.08-1.56,1.75-3.87,4.17-6.84,7.19S481.55,290,477.75,294a80.56,80.56,0,0,0-11.21,14.25,47.09,47.09,0,0,0-6,17.13c-.71,5.54-.94,10.54-1.14,14.75s-.23,7.58-.23,9.94v2.71a3.2,3.2,0,0,0,0,1,4.94,4.94,0,0,0,0-1c0-.73.1-1.6.17-2.69.15-2.5.33-5.85.56-9.94s.58-9.19,1.35-14.58a47,47,0,0,1,5.92-16.67,81.61,81.61,0,0,1,11-14.11c3.78-4,7.38-7.52,10.27-10.56s5.16-5.61,6.63-7.44l1.66-2.08a4.63,4.63,0,0,0,.69-1.06Z"/>
          <path class="cls-25" d="M604.56,239.74s33.64,14.38,44,37.17,31.64,95.15,32.14,108.53-24.22,55-24.22,55l-39.06-24.77,7.4-18.33L613,318.53Z"/>
          <path class="cls-28" d="M603.67,130.57c-2.74-4.94-8.32-8.67-13.85-7.79a19.18,19.18,0,0,0-16.42-21.46c-5.41-.48-11.16,1.35-16-1-3.06-1.44-5.18-4.17-7.65-6.56-10.39-9.6-28.17-8.67-38.88.65s-14.41,25.23-10.89,39c1.62,6.42,4.66,12.5,4.64,19.19,0,6.25-2.68,12.08-3.24,18.27s2.08,13.6,8.32,14.77l60.93,16.67a24.15,24.15,0,0,0,26.61-8.81c4-5.67,5.24-12.75,6.4-19.58A181.27,181.27,0,0,0,606.85,147a32.27,32.27,0,0,0-3.18-16.44Z"/>
          <path class="cls-28" d="M617.12,154.38a9.3,9.3,0,0,0-12-2.08c-10.67.15-20.27-.4-28.15,6.81a36.5,36.5,0,0,0-12,28.56,31,31,0,0,0,16.63,25.65,26.77,26.77,0,0,0,29.71-4.4,23.85,23.85,0,0,0,3.47-29.33,45.44,45.44,0,0,0,5-12.5,15.29,15.29,0,0,0-2.66-12.71Z"/>
          <path class="cls-24" d="M559.24,269.07a27.05,27.05,0,0,0,27-26.15l2.66-88.13c1.45-23.67-11.06-44.23-34.7-45H552a42.33,42.33,0,0,0-41.2,40c-1.14,20.5-2.08,43.19-1.77,54.17.85,22.77,23.72,25.75,23.72,25.75s0,5.27-.15,11.94a26.9,26.9,0,0,0,26.65,27.48Z"/>
          <path class="cls-29" d="M532.8,229.92a54.72,54.72,0,0,0,29.33-9.46s-6.8,16.67-29.5,15.21Z"/>
          <path class="cls-27" d="M516.64,165a3.27,3.27,0,0,0,3.2,3.21,3.1,3.1,0,0,0,3-1.82,3.12,3.12,0,0,0,.27-1.2,3.25,3.25,0,0,0-3.18-3.21,3.14,3.14,0,0,0-3,1.82,3.15,3.15,0,0,0-.29,1.2Z"/>
          <path class="cls-27" d="M549.3,165a3.23,3.23,0,0,0,3.2,3.19,3.08,3.08,0,0,0,3.26-3,3.27,3.27,0,0,0-3.2-3.21,3.1,3.1,0,0,0-3.26,3Z"/>
          <path class="cls-27" d="M548.62,189.28c-.56,0-.48,3.77-3.66,6.54s-7.21,2.44-7.23,3,.94.71,2.62.71a9.41,9.41,0,0,0,6-2.27,8.34,8.34,0,0,0,2.83-5.48C549.33,190.17,548.89,189.23,548.62,189.28Z"/>
          <path class="cls-24" d="M587.54,171.9c.4-.17,15.49-5,15.36,10.56s-15.7,12.23-15.72,11.77S587.54,171.9,587.54,171.9Z"/>
          <path class="cls-17" d="M585.87,184.37s3.41-8.29,12.59-6.45"/>
          <path class="cls-29" d="M550.43,173.36a4.19,4.19,0,0,0,1.54,1.33,8.66,8.66,0,0,0,4.84,1,8.31,8.31,0,0,0,4.57-1.9c1-.81,1.37-1.52,1.27-1.6a14.54,14.54,0,0,1-5.92,2.5A14.85,14.85,0,0,1,550.43,173.36Z"/>
          <path class="cls-29" d="M548.83,172.59c-.1.25,1.54,1.1,3.78,1.1s3.89-.85,3.78-1.08-1.75,0-3.78,0S548.93,172.32,548.83,172.59Z"/>
          <path class="cls-29" d="M515.13,170.42a12.45,12.45,0,0,0,11.33,1.06c0-.27-2.6.15-5.7-.17S515.23,170.15,515.13,170.42Z"/>
          <path class="cls-29" d="M516.81,171.63a8.74,8.74,0,0,0,10.4,1.85,46.84,46.84,0,0,1-5.36-.15,47.26,47.26,0,0,1-5-1.71Z"/>
          <path class="cls-28" d="M503.19,131.9a27,27,0,0,0,41.35-1.81,17.63,17.63,0,0,0,29.58,1.6,48,48,0,0,0,2.56,32.71,14.57,14.57,0,0,0,4,5.65c1.83,1.44,6.4,2.6,8.48,1.56s1-3.62,1.75-5.65a45.74,45.74,0,0,0-84.59-34.29"/>
          <path class="cls-21" d="M567.17,154.53a1,1,0,0,0,.59-.18,1.05,1.05,0,0,0,.33-1.44c-5.69-8-16.44-3.24-16.55-3.19a1,1,0,0,0-.32.22,1,1,0,0,0-.28.71,1,1,0,0,0,.09.38,1,1,0,0,0,1.34.51c.39-.18,9.37-4.09,14.08,2.57a1.09,1.09,0,0,0,.32.28A1.06,1.06,0,0,0,567.17,154.53Z"/>
          <path class="cls-21" d="M529.91,152.75a1,1,0,0,0,.54-.31,1.06,1.06,0,0,0,0-1.48c-7.33-6.5-16.75.53-16.84.61a1,1,0,0,0-.27.29,1,1,0,0,0-.11.76,1,1,0,0,0,.17.35,1,1,0,0,0,.29.27,1,1,0,0,0,.37.13,1,1,0,0,0,.75-.2c.34-.26,8.21-6.09,14.3-.66a1.07,1.07,0,0,0,.37.2A1.09,1.09,0,0,0,529.91,152.75Z"/>
          <path class="cls-17" d="M540.62,179.91s-5.17-3.06-10.59,2.5"/>
        </g>
      </g>
      <circle class="cls-4" cx="545.17" cy="201.57" r="148.49"/>
      <path d="M172.81,456.85c-83.43,0-151.07-67.41-151.07-150.57S89.37,155.71,172.81,155.71s151.07,67.41,151.07,150.57S256.24,456.85,172.81,456.85Z"/>
      <circle class="cls-30" cx="190.01" cy="290.41" r="151.49"/>
      <g class="cls-31">
        <g>
          <rect class="cls-1" x="-17.71" y="128.85" width="359.21" height="266.05"/>
          <path class="cls-21" d="M125.92,353.91c3.42-18.76,7.46-37.62,6.61-56.8s-6.18-38.32-5.56-57.77c.51-16.93,5.84-33.84,19.25-45a52,52,0,0,1,44.32-11.12A53.66,53.66,0,0,1,226.29,211,96.48,96.48,0,0,1,234.21,238a125,125,0,0,0,4.61,14.82,77.65,77.65,0,0,0,12.87,22.05,72.24,72.24,0,0,0,17.86,14.72c13.18,8,27.79,13.23,40.79,21.49a70.5,70.5,0,0,1,17.37,15.05,73.83,73.83,0,0,1,12.15,22.65,113,113,0,0,1,5.15,48,123.81,123.81,0,0,1-13.67,45,112.73,112.73,0,0,1-30.11,36A116.68,116.68,0,0,1,211.8,500.5a104.73,104.73,0,0,1-42.49-17.17A114,114,0,0,1,138,451.06,106.22,106.22,0,0,1,122.37,409C119.82,390.58,122.58,372.05,125.92,353.91Z"/>
          <path class="cls-32" d="M189.49,320.87a18.81,18.81,0,0,0,18.76-18.76v-38a18.81,18.81,0,0,0-18.76-18.76h0a18.81,18.81,0,0,0-18.76,18.76v38a18.81,18.81,0,0,0,18.76,18.76Z"/>
          <path class="cls-33" d="M188,245.39h3.19a17.22,17.22,0,0,1,17.17,17.16V276c-11.89,10.11-28.51,16-37.52,15.16V262.55A17.22,17.22,0,0,1,188,245.39Z"/>
          <path class="cls-32" d="M141.16,223.67a38.6,38.6,0,0,1,2.14-12.51,1.55,1.55,0,0,1,0-.36h0a39,39,0,0,1,75.48,8.34h0c2.29,8.29-3.68,27.41-7.36,37.8a26.89,26.89,0,0,1-8.52,12c-13.23,10.68-45.09,27.92-56.41,11.92C136.45,266.47,138.74,241.19,141.16,223.67Z"/>
          <path class="cls-17" d="M153.1,254s4.32,4.17,10.88,0"/>
          <path class="cls-21" d="M193.71,235.58a1,1,0,0,0,.59-.18,1.06,1.06,0,0,0,.33-1.44c-5.69-8-16.44-3.24-16.55-3.19a1,1,0,0,0-.32.22,1,1,0,0,0-.21.33,1,1,0,0,0,0,.77,1,1,0,0,0,.56.54,1,1,0,0,0,.78,0c.39-.18,9.37-4.09,14.08,2.57a1.08,1.08,0,0,0,.72.41Z"/>
          <path class="cls-21" d="M140.18,231.39l.23-2a18.84,18.84,0,0,1,8,1.39,1,1,0,0,1,.54.55,1,1,0,0,1,0,.77,1,1,0,0,1-.56.54,1,1,0,0,1-.39.07,1,1,0,0,1-.39-.09,16.68,16.68,0,0,0-7.41-1.21Z"/>
          <path class="cls-34" d="M152.38,268.32a23.85,23.85,0,0,0,24.11-.9"/>
          <path class="cls-21" d="M158.6,208.85c-14.18,1.05-17.4,14.75-17.4,14.75a38.62,38.62,0,0,1,2.14-12.51,1.67,1.67,0,0,1,0-.36,39,39,0,0,1,75.48,8.34h0c1.26,4.58,0,12.53-2,20.59h-8.6c-12.87-30.11-44.34-31.14-44.34-31.14l15.31-18.3S164,208.46,158.6,208.85Z"/>
          <path class="cls-32" d="M230.66,248a15.08,15.08,0,1,0-4.42,10.66A15.08,15.08,0,0,0,230.66,248Z"/>
          <path class="cls-17" d="M208.71,249.4s4.84-12.28,17.83-9.55"/>
          <path class="cls-26" d="M102.56,549.06c1.62-19.12,47.25-243.6,47.25-243.6h71.34s36.18,222,38.6,239.54l66.52,376.09h-269Z"/>
          <path class="cls-35" d="M197.8,369.74a5.87,5.87,0,1,0-1.72,4.15A5.87,5.87,0,0,0,197.8,369.74Z"/>
          <path class="cls-35" d="M181.07,446.07a5.87,5.87,0,1,0-1.72,4.15A5.87,5.87,0,0,0,181.07,446.07Z"/>
          <path class="cls-36" d="M209.84,305.58a5.08,5.08,0,0,1-.31-.57,147.35,147.35,0,0,1,19.94.21,14.68,14.68,0,0,1,3.14.23H233A106.61,106.61,0,0,1,248,308a82.93,82.93,0,0,1,31.55,16c17.11,13.85,28.18,33.69,36.41,53.73,4.25,10.29,7.72,21,11.07,31.73q6.43,21,12.33,42.13,12,42.72,22,86c6.2,26.74,11.84,36.47,16.91,63.46l-33.84,6.87c-6-18.71-34.38-95.84-42.59-121-7.28-22.21-14.28-44.57-22.62-66.42q-2.78-7.39-5.87-14.67a632.45,632.45,0,0,0-.28,71.05s18,82.74,21.57,99.85A16,16,0,0,1,279,596H239.1l-30.88-290.8A9.42,9.42,0,0,0,209.84,305.58Z"/>
          <path class="cls-36" d="M209.53,305Z"/>
          <path class="cls-36" d="M169.54,305.58a6.08,6.08,0,0,1,.31-.57,147.89,147.89,0,0,0-20,.2,14.25,14.25,0,0,0-3.11.23h-.33A105.43,105.43,0,0,0,131.38,308a83.22,83.22,0,0,0-31.63,16c-17.09,13.85-28.18,33.69-36.39,53.73-4.25,10.29-7.72,21-11.09,31.73q-6.43,21-12.33,42.13-12,42.72-22,86c-6.2,26.74-11.81,36.47-16.88,63.46l33.82,6.87c6-18.71,34.41-95.84,42.59-121,7.28-22.11,14.23-44.57,22.62-66.32q2.81-7.39,5.89-14.67a633.17,633.17,0,0,1,.26,71.05s-18,82.74-21.54,99.85a16,16,0,0,0,15.65,19.25H140.2l30.88-290.8a9.94,9.94,0,0,1-1.54.23Z"/>
          <path class="cls-37" d="M191.62,242.89a26.08,26.08,0,0,1-13,0"/>
          <path class="cls-37" d="M154,242.89a26.08,26.08,0,0,1-13,0"/>
        </g>
      </g>
      <circle class="cls-4" cx="190.01" cy="290.41" r="148.49"/>
    </g>
  </g>
</svg>
