<svg id="Layer_1" data-name="Layer 1" xmlns="http://www.w3.org/2000/svg" viewBox="0 0 1357 660">
  <defs>
    <style>
      .cls-1, .cls-11, .cls-12, .cls-2, .cls-3, .cls-4, .cls-5, .cls-6, .cls-8, .cls-9 {
        stroke: #000;
        stroke-width: 6px;
      }

      .cls-2 {
        fill: #fca44a;
      }

      .cls-3 {
        fill: #cec6f6;
      }

      .cls-4 {
        fill: #c7cdce;
      }

      .cls-5 {
        fill: #fbf4e7;
      }

      .cls-6 {
        fill: #f4b694;
      }

      .cls-10, .cls-7 {
        fill: none;
      }

      .cls-8 {
        fill: #e8505b;
        animation: enlarge 2s ease-in-out infinite alternate-reverse ;
      }
      
      @keyframes enlarge {
          0% {
              transform: scale(1);
            }  
          100% {
              transform: scale(1.02);
            }
      }
      .cls-9 {
        fill: #ffc4af;
      }

      .cls-10 {
        stroke: #fff;
        stroke-width: 8px;
        animation: shake-horizontal 20s ease-in-out infinite both;
      }
      @keyframes shake-horizontal {
      0%,
      100% {
        transform: translateX(0);
      }
      10%,
      30%,
      50%,
      70% {
        transform: translateX(-20px);
      }
      20%,
      40%,
      60% {
        transform: translateX(20px);
      }
      80% {
        transform: translateX(8px);
      }
      90% {
        transform: translateX(-8px);
      }
    }

      .cls-11 {
        fill: #75be8a;
      }

      .cls-12 {
        fill: #95ddeb;
      }
    </style>
  </defs>
  <title>Video_illustration1-c</title>
  <circle class="cls-1" cx="1208.23" cy="147.77" r="73.66"/>
  <circle class="cls-2" cx="1195.44" cy="136.66" r="73.66"/>
  <circle class="cls-1" cx="143.12" cy="319.39" r="57.1"/>
  <circle class="cls-3" cx="133.1" cy="310.69" r="57.1"/>
  <path class="cls-1" d="M268.53,541.28H1146A58.72,58.72,0,0,1,1087.37,597H327.18A58.73,58.73,0,0,1,268.53,541.28Z"/>
  <path class="cls-1" d="M328.05,143.53a20,20,0,0,1,20-20h718.62a20,20,0,0,1,20,20V541.14H328.05Z"/>
  <path class="cls-1" d="M1050.23,541.34h3V167.16a13,13,0,0,0-13-13H374.49a13,13,0,0,0-13,13V541.34h688.74Z"/>
  <circle class="cls-1" cx="716.7" cy="352.42" r="125.93"/>
  <circle class="cls-1" cx="698.02" cy="333.74" r="125.93"/>
  <path class="cls-4" d="M249.85,522.59h877.48a58.72,58.72,0,0,1-58.65,55.72H308.5A58.73,58.73,0,0,1,249.85,522.59Z"/>
  <path class="cls-4" d="M309.37,124.84a20,20,0,0,1,20-20H1048a20,20,0,0,1,20,20V522.46H309.37Z"/>
  <path class="cls-5" d="M1031.55,522.65h3V148.48a13,13,0,0,0-13-13H355.8a13,13,0,0,0-13,13V522.65h688.75Z"/>
  <g>
    <g>
      <circle cx="366.67" cy="163.73" r="2.25"/>
      <circle cx="433.14" cy="163.73" r="2.25"/>
      <circle cx="499.62" cy="163.73" r="2.25"/>
      <circle cx="566.09" cy="163.73" r="2.25"/>
      <circle cx="632.57" cy="163.73" r="2.25"/>
      <circle cx="699.04" cy="163.73" r="2.25"/>
      <circle cx="765.51" cy="163.73" r="2.25"/>
      <circle cx="831.99" cy="163.73" r="2.25"/>
      <circle cx="898.46" cy="163.73" r="2.25"/>
      <circle cx="964.94" cy="163.73" r="2.25"/>
    </g>
    <g>
      <circle cx="366.67" cy="207.81" r="2.25"/>
      <circle cx="433.14" cy="207.81" r="2.25"/>
      <circle cx="499.62" cy="207.81" r="2.25"/>
      <circle cx="566.09" cy="207.81" r="2.25"/>
      <circle cx="632.57" cy="207.81" r="2.25"/>
      <circle cx="699.04" cy="207.81" r="2.25"/>
      <circle cx="765.51" cy="207.81" r="2.25"/>
      <circle cx="831.99" cy="207.81" r="2.25"/>
      <circle cx="898.46" cy="207.81" r="2.25"/>
      <circle cx="964.94" cy="207.81" r="2.25"/>
    </g>
    <g>
      <circle cx="366.67" cy="251.89" r="2.25"/>
      <circle cx="433.14" cy="251.89" r="2.25"/>
      <circle cx="499.62" cy="251.89" r="2.25"/>
      <circle cx="566.09" cy="251.89" r="2.25"/>
      <circle cx="632.57" cy="251.89" r="2.25"/>
      <circle cx="699.04" cy="251.89" r="2.25"/>
      <circle cx="765.51" cy="251.89" r="2.25"/>
      <circle cx="831.99" cy="251.89" r="2.25"/>
      <circle cx="898.46" cy="251.89" r="2.25"/>
      <circle cx="964.94" cy="251.89" r="2.25"/>
    </g>
    <g>
      <circle cx="366.67" cy="295.97" r="2.25"/>
      <circle cx="433.14" cy="295.97" r="2.25"/>
      <circle cx="499.62" cy="295.97" r="2.25"/>
      <circle cx="566.09" cy="295.97" r="2.25"/>
      <circle cx="632.57" cy="295.97" r="2.25"/>
      <circle cx="699.04" cy="295.97" r="2.25"/>
      <circle cx="765.51" cy="295.97" r="2.25"/>
      <circle cx="831.99" cy="295.97" r="2.25"/>
      <circle cx="898.46" cy="295.97" r="2.25"/>
      <circle cx="964.94" cy="295.97" r="2.25"/>
    </g>
  </g>
  <rect class="cls-6" x="342.8" y="312.05" width="691.74" height="210.6"/>
  <g>
    <g>
      <circle cx="366.67" cy="340.04" r="2.25"/>
      <circle cx="433.14" cy="340.04" r="2.25"/>
      <circle cx="499.62" cy="340.04" r="2.25"/>
      <circle cx="566.09" cy="340.04" r="2.25"/>
      <circle cx="632.57" cy="340.04" r="2.25"/>
      <circle cx="699.04" cy="340.04" r="2.25"/>
      <circle cx="765.51" cy="340.04" r="2.25"/>
      <circle cx="831.99" cy="340.04" r="2.25"/>
      <circle cx="898.46" cy="340.04" r="2.25"/>
      <circle cx="964.94" cy="340.04" r="2.25"/>
    </g>
    <g>
      <circle cx="366.67" cy="384.12" r="2.25"/>
      <circle cx="433.14" cy="384.12" r="2.25"/>
      <circle cx="499.62" cy="384.12" r="2.25"/>
      <circle cx="566.09" cy="384.12" r="2.25"/>
      <circle cx="632.57" cy="384.12" r="2.25"/>
      <circle cx="699.04" cy="384.12" r="2.25"/>
      <circle cx="765.51" cy="384.12" r="2.25"/>
      <circle cx="831.99" cy="384.12" r="2.25"/>
      <circle cx="898.46" cy="384.12" r="2.25"/>
      <circle cx="964.94" cy="384.12" r="2.25"/>
    </g>
    <g>
      <circle cx="366.67" cy="428.2" r="2.25"/>
      <circle cx="433.14" cy="428.2" r="2.25"/>
      <circle cx="499.62" cy="428.2" r="2.25"/>
      <circle cx="566.09" cy="428.2" r="2.25"/>
      <circle cx="632.57" cy="428.2" r="2.25"/>
      <circle cx="699.04" cy="428.2" r="2.25"/>
      <circle cx="765.51" cy="428.2" r="2.25"/>
      <circle cx="831.99" cy="428.2" r="2.25"/>
      <circle cx="898.46" cy="428.2" r="2.25"/>
      <circle cx="964.94" cy="428.2" r="2.25"/>
    </g>
    <g>
      <circle cx="366.67" cy="472.28" r="2.25"/>
      <circle cx="433.14" cy="472.28" r="2.25"/>
      <circle cx="499.62" cy="472.28" r="2.25"/>
      <circle cx="566.09" cy="472.28" r="2.25"/>
      <circle cx="632.57" cy="472.28" r="2.25"/>
      <circle cx="699.04" cy="472.28" r="2.25"/>
      <circle cx="765.51" cy="472.28" r="2.25"/>
      <circle cx="831.99" cy="472.28" r="2.25"/>
      <circle cx="898.46" cy="472.28" r="2.25"/>
      <circle cx="964.94" cy="472.28" r="2.25"/>
    </g>
    <g>
      <circle cx="366.67" cy="516.36" r="2.25"/>
      <circle cx="433.14" cy="516.36" r="2.25"/>
      <circle cx="499.62" cy="516.36" r="2.25"/>
      <circle cx="566.09" cy="516.36" r="2.25"/>
      <circle cx="632.57" cy="516.36" r="2.25"/>
      <circle cx="699.04" cy="516.36" r="2.25"/>
      <circle cx="765.51" cy="516.36" r="2.25"/>
      <circle cx="831.99" cy="516.36" r="2.25"/>
      <circle cx="898.46" cy="516.36" r="2.25"/>
      <circle cx="964.94" cy="516.36" r="2.25"/>
    </g>
  </g>
  <g>
    <g>
      <circle cx="402.16" cy="163.73" r="2.25"/>
      <circle cx="468.63" cy="163.73" r="2.25"/>
      <circle cx="535.1" cy="163.73" r="2.25"/>
      <circle cx="601.58" cy="163.73" r="2.25"/>
      <circle cx="668.05" cy="163.73" r="2.25"/>
      <circle cx="734.53" cy="163.73" r="2.25"/>
      <circle cx="801" cy="163.73" r="2.25"/>
      <circle cx="867.48" cy="163.73" r="2.25"/>
      <circle cx="933.95" cy="163.73" r="2.25"/>
      <circle cx="1000.42" cy="163.73" r="2.25"/>
    </g>
    <g>
      <circle cx="402.16" cy="207.81" r="2.25"/>
      <circle cx="468.63" cy="207.81" r="2.25"/>
      <circle cx="535.1" cy="207.81" r="2.25"/>
      <circle cx="601.58" cy="207.81" r="2.25"/>
      <circle cx="668.05" cy="207.81" r="2.25"/>
      <circle cx="734.53" cy="207.81" r="2.25"/>
      <circle cx="801" cy="207.81" r="2.25"/>
      <circle cx="867.48" cy="207.81" r="2.25"/>
      <circle cx="933.95" cy="207.81" r="2.25"/>
      <circle cx="1000.42" cy="207.81" r="2.25"/>
    </g>
    <g>
      <circle cx="402.16" cy="251.89" r="2.25"/>
      <circle cx="468.63" cy="251.89" r="2.25"/>
      <circle cx="535.1" cy="251.89" r="2.25"/>
      <circle cx="601.58" cy="251.89" r="2.25"/>
      <circle cx="668.05" cy="251.89" r="2.25"/>
      <circle cx="734.53" cy="251.89" r="2.25"/>
      <circle cx="801" cy="251.89" r="2.25"/>
      <circle cx="867.48" cy="251.89" r="2.25"/>
      <circle cx="933.95" cy="251.89" r="2.25"/>
      <circle cx="1000.42" cy="251.89" r="2.25"/>
    </g>
    <g>
      <circle cx="402.16" cy="295.97" r="2.25"/>
      <circle cx="468.63" cy="295.97" r="2.25"/>
      <circle cx="535.1" cy="295.97" r="2.25"/>
      <circle cx="601.58" cy="295.97" r="2.25"/>
      <circle cx="668.05" cy="295.97" r="2.25"/>
      <circle cx="734.53" cy="295.97" r="2.25"/>
      <circle cx="801" cy="295.97" r="2.25"/>
      <circle cx="867.48" cy="295.97" r="2.25"/>
      <circle cx="933.95" cy="295.97" r="2.25"/>
      <circle cx="1000.42" cy="295.97" r="2.25"/>
    </g>
  </g>
  <g>
    <g>
      <circle cx="402.16" cy="340.04" r="2.25"/>
      <circle cx="468.63" cy="340.04" r="2.25"/>
      <circle cx="535.1" cy="340.04" r="2.25"/>
      <circle cx="601.58" cy="340.04" r="2.25"/>
      <circle cx="668.05" cy="340.04" r="2.25"/>
      <circle cx="734.53" cy="340.04" r="2.25"/>
      <circle cx="801" cy="340.04" r="2.25"/>
      <circle cx="867.48" cy="340.04" r="2.25"/>
      <circle cx="933.95" cy="340.04" r="2.25"/>
      <circle cx="1000.42" cy="340.04" r="2.25"/>
    </g>
    <g>
      <circle cx="402.16" cy="384.12" r="2.25"/>
      <circle cx="468.63" cy="384.12" r="2.25"/>
      <circle cx="535.1" cy="384.12" r="2.25"/>
      <circle cx="601.58" cy="384.12" r="2.25"/>
      <circle cx="668.05" cy="384.12" r="2.25"/>
      <circle cx="734.53" cy="384.12" r="2.25"/>
      <circle cx="801" cy="384.12" r="2.25"/>
      <circle cx="867.48" cy="384.12" r="2.25"/>
      <circle cx="933.95" cy="384.12" r="2.25"/>
      <circle cx="1000.42" cy="384.12" r="2.25"/>
    </g>
    <g>
      <circle cx="402.16" cy="428.2" r="2.25"/>
      <circle cx="468.63" cy="428.2" r="2.25"/>
      <circle cx="535.1" cy="428.2" r="2.25"/>
      <circle cx="601.58" cy="428.2" r="2.25"/>
      <circle cx="668.05" cy="428.2" r="2.25"/>
      <circle cx="734.53" cy="428.2" r="2.25"/>
      <circle cx="801" cy="428.2" r="2.25"/>
      <circle cx="867.48" cy="428.2" r="2.25"/>
      <circle cx="933.95" cy="428.2" r="2.25"/>
      <circle cx="1000.42" cy="428.2" r="2.25"/>
    </g>
    <g>
      <circle cx="402.16" cy="472.28" r="2.25"/>
      <circle cx="468.63" cy="472.28" r="2.25"/>
      <circle cx="535.1" cy="472.28" r="2.25"/>
      <circle cx="601.58" cy="472.28" r="2.25"/>
      <circle cx="668.05" cy="472.28" r="2.25"/>
      <circle cx="734.53" cy="472.28" r="2.25"/>
      <circle cx="801" cy="472.28" r="2.25"/>
      <circle cx="867.48" cy="472.28" r="2.25"/>
      <circle cx="933.95" cy="472.28" r="2.25"/>
      <circle cx="1000.42" cy="472.28" r="2.25"/>
    </g>
    <g>
      <circle cx="402.16" cy="516.36" r="2.25"/>
      <circle cx="468.63" cy="516.36" r="2.25"/>
      <circle cx="535.1" cy="516.36" r="2.25"/>
      <circle cx="601.58" cy="516.36" r="2.25"/>
      <circle cx="668.05" cy="516.36" r="2.25"/>
      <circle cx="734.53" cy="516.36" r="2.25"/>
      <circle cx="801" cy="516.36" r="2.25"/>
      <circle cx="867.48" cy="516.36" r="2.25"/>
      <circle cx="933.95" cy="516.36" r="2.25"/>
      <circle cx="1000.42" cy="516.36" r="2.25"/>
    </g>
  </g>
  <g>
    <g>
      <circle cx="416.77" cy="143.08" r="2.25"/>
      <circle cx="483.25" cy="143.08" r="2.25"/>
      <circle cx="549.72" cy="143.08" r="2.25"/>
      <circle cx="616.2" cy="143.08" r="2.25"/>
      <circle cx="682.67" cy="143.08" r="2.25"/>
      <circle cx="749.15" cy="143.08" r="2.25"/>
      <circle cx="815.62" cy="143.08" r="2.25"/>
      <circle cx="882.09" cy="143.08" r="2.25"/>
      <circle cx="948.57" cy="143.08" r="2.25"/>
      <circle cx="1015.04" cy="143.08" r="2.25"/>
    </g>
    <g>
      <circle cx="416.77" cy="187.16" r="2.25"/>
      <circle cx="483.25" cy="187.16" r="2.25"/>
      <circle cx="549.72" cy="187.16" r="2.25"/>
      <circle cx="616.2" cy="187.16" r="2.25"/>
      <circle cx="682.67" cy="187.16" r="2.25"/>
      <circle cx="749.15" cy="187.16" r="2.25"/>
      <circle cx="815.62" cy="187.16" r="2.25"/>
      <circle cx="882.09" cy="187.16" r="2.25"/>
      <circle cx="948.57" cy="187.16" r="2.25"/>
      <circle cx="1015.04" cy="187.16" r="2.25"/>
    </g>
    <g>
      <circle cx="416.77" cy="231.24" r="2.25"/>
      <circle cx="483.25" cy="231.24" r="2.25"/>
      <circle cx="549.72" cy="231.24" r="2.25"/>
      <circle cx="616.2" cy="231.24" r="2.25"/>
      <circle cx="682.67" cy="231.24" r="2.25"/>
      <circle cx="749.15" cy="231.24" r="2.25"/>
      <circle cx="815.62" cy="231.24" r="2.25"/>
      <circle cx="882.09" cy="231.24" r="2.25"/>
      <circle cx="948.57" cy="231.24" r="2.25"/>
      <circle cx="1015.04" cy="231.24" r="2.25"/>
    </g>
    <g>
      <circle cx="416.77" cy="275.32" r="2.25"/>
      <circle cx="483.25" cy="275.32" r="2.25"/>
      <circle cx="549.72" cy="275.32" r="2.25"/>
      <circle cx="616.2" cy="275.32" r="2.25"/>
      <circle cx="682.67" cy="275.32" r="2.25"/>
      <circle cx="749.15" cy="275.32" r="2.25"/>
      <circle cx="815.62" cy="275.32" r="2.25"/>
      <circle cx="882.09" cy="275.32" r="2.25"/>
      <circle cx="948.57" cy="275.32" r="2.25"/>
      <circle cx="1015.04" cy="275.32" r="2.25"/>
    </g>
  </g>
  <g>
    <g>
      <circle cx="416.77" cy="319.39" r="2.25"/>
      <circle cx="483.25" cy="319.39" r="2.25"/>
      <circle cx="549.72" cy="319.39" r="2.25"/>
      <circle cx="616.2" cy="319.39" r="2.25"/>
      <circle cx="682.67" cy="319.39" r="2.25"/>
      <circle cx="749.15" cy="319.39" r="2.25"/>
      <circle cx="815.62" cy="319.39" r="2.25"/>
      <circle cx="882.09" cy="319.39" r="2.25"/>
      <circle cx="948.57" cy="319.39" r="2.25"/>
      <circle cx="1015.04" cy="319.39" r="2.25"/>
    </g>
    <g>
      <circle cx="416.77" cy="363.47" r="2.25"/>
      <circle cx="483.25" cy="363.47" r="2.25"/>
      <circle cx="549.72" cy="363.47" r="2.25"/>
      <circle cx="616.2" cy="363.47" r="2.25"/>
      <circle cx="682.67" cy="363.47" r="2.25"/>
      <circle cx="749.15" cy="363.47" r="2.25"/>
      <circle cx="815.62" cy="363.47" r="2.25"/>
      <circle cx="882.09" cy="363.47" r="2.25"/>
      <circle cx="948.57" cy="363.47" r="2.25"/>
      <circle cx="1015.04" cy="363.47" r="2.25"/>
    </g>
    <g>
      <circle cx="416.77" cy="407.55" r="2.25"/>
      <circle cx="483.25" cy="407.55" r="2.25"/>
      <circle cx="549.72" cy="407.55" r="2.25"/>
      <circle cx="616.2" cy="407.55" r="2.25"/>
      <circle cx="682.67" cy="407.55" r="2.25"/>
      <circle cx="749.15" cy="407.55" r="2.25"/>
      <circle cx="815.62" cy="407.55" r="2.25"/>
      <circle cx="882.09" cy="407.55" r="2.25"/>
      <circle cx="948.57" cy="407.55" r="2.25"/>
      <circle cx="1015.04" cy="407.55" r="2.25"/>
    </g>
    <g>
      <circle cx="416.77" cy="451.63" r="2.25"/>
      <circle cx="483.25" cy="451.63" r="2.25"/>
      <circle cx="549.72" cy="451.63" r="2.25"/>
      <circle cx="616.2" cy="451.63" r="2.25"/>
      <circle cx="682.67" cy="451.63" r="2.25"/>
      <circle cx="749.15" cy="451.63" r="2.25"/>
      <circle cx="815.62" cy="451.63" r="2.25"/>
      <circle cx="882.09" cy="451.63" r="2.25"/>
      <circle cx="948.57" cy="451.63" r="2.25"/>
      <circle cx="1015.04" cy="451.63" r="2.25"/>
    </g>
    <g>
      <circle cx="416.77" cy="495.71" r="2.25"/>
      <circle cx="483.25" cy="495.71" r="2.25"/>
      <circle cx="549.72" cy="495.71" r="2.25"/>
      <circle cx="616.2" cy="495.71" r="2.25"/>
      <circle cx="682.67" cy="495.71" r="2.25"/>
      <circle cx="749.15" cy="495.71" r="2.25"/>
      <circle cx="815.62" cy="495.71" r="2.25"/>
      <circle cx="882.09" cy="495.71" r="2.25"/>
      <circle cx="948.57" cy="495.71" r="2.25"/>
      <circle cx="1015.04" cy="495.71" r="2.25"/>
    </g>
  </g>
  <path class="cls-7" d="M345.8,136.61h685.75V508.06a20,20,0,0,1-20,20H365.8a20,20,0,0,1-20-20Z"/>
  <circle class="cls-1" cx="698.02" cy="333.74" r="125.93"/>
  <circle class="cls-8" cx="679.33" cy="315.05" r="125.93"/>
  <path class="cls-5" d="M654.77,272.51l73.68,42.54-73.68,42.54Z"/>
  <rect class="cls-1" x="268.36" y="350" width="125" height="91"/>
  <rect class="cls-2" x="312.36" y="350" width="81" height="91"/>
  <rect class="cls-1" x="988.36" y="254" width="158" height="84"/>
  <rect class="cls-9" x="988.36" y="254" width="117" height="84"/>
  <path class="cls-10" d="M1171.36,471.09l16.82-11.36L1205,471.09l16.82-11.36,16.82,11.36,16.81-11.36,16.82,11.36"/>
  <path class="cls-10" d="M1171.36,455.36,1188.18,444,1205,455.36,1221.81,444l16.82,11.36L1255.44,444l16.82,11.36"/>
  <path class="cls-10" d="M145.36,175.09l16.82-11.36L179,175.09l16.82-11.36,16.82,11.36,16.82-11.36,16.82,11.36"/>
  <path class="cls-10" d="M145.36,159.36,162.18,148,179,159.36,195.81,148l16.82,11.36L229.44,148l16.82,11.36"/>
  <circle class="cls-1" cx="919.43" cy="443.98" r="61.46"/>
  <circle class="cls-11" cx="910.09" cy="434.64" r="61.46"/>
  <circle class="cls-1" cx="462.18" cy="224.02" r="30.1"/>
  <circle class="cls-12" cx="457.38" cy="219.23" r="30.1"/>
</svg>
